<?xml version="1.0" standalone="no"?>
<svg viewBox="0 0 800 600" version="1.1" xmlns="http://www.w3.org/2000/svg" xmlns:xlink="http://www.w3.org/1999/xlink" stroke-linecap="round" stroke-linejoin="round" fill-rule="evenodd" xml:space="preserve" >
<defs >
<clipPath id="clipId0" >
<path d="M0,600 800,600 800,0 0,0 z" />
</clipPath>
</defs>
<g stroke-width="0.1" clip-path="url(#clipId0)" fill="none" stroke="rgb(0,0,0)" />
<g stroke-width="0.25" clip-path="url(#clipId0)" fill="none" stroke="rgb(45,45,45)" >
<polyline points="-48.8759,436.334 66.5212,436.334 " />
<polyline points="-49.0145,442.296 66.5212,442.296 " />
<polyline points="-49.1531,448.259 66.5212,448.259 " />
<polyline points="-49.2917,454.221 66.5212,454.221 " />
<polyline points="-49.4303,460.183 66.5212,460.183 " />
<polyline points="-49.5689,466.146 66.5212,466.146 " />
<polyline points="-49.7075,472.108 66.5212,472.108 " />
<polyline points="-49.8461,478.071 66.5212,478.071 " />
<polyline points="-49.9847,484.033 66.5212,484.033 " />
<polyline points="-50.1233,489.996 66.5212,489.996 " />
<polyline points="-50.2618,495.958 66.5212,495.958 " />
<polyline points="-50.4004,501.92 66.5212,501.92 " />
<polyline points="-50.539,507.883 66.5212,507.883 " />
<polyline points="-50.6776,513.845 66.5212,513.845 " />
<polyline points="-50.8162,519.808 66.5212,519.808 " />
<polyline points="-50.9548,525.77 66.5212,525.77 " />
<polyline points="-51.0934,531.733 66.5212,531.733 " />
<polyline points="-51.232,537.695 66.5212,537.695 " />
<polyline points="-51.3706,543.658 66.5212,543.658 " />
<polyline points="-51.5092,549.62 66.5212,549.62 " />
<polyline points="-51.6478,555.582 66.5212,555.582 " />
<polyline points="-51.7864,561.545 66.5212,561.545 " />
<polyline points="-51.925,567.507 66.5212,567.507 " />
<polyline points="-52.0635,573.47 66.5212,573.47 " />
<polyline points="-52.2021,579.432 66.5212,579.432 " />
<polyline points="-52.3407,585.395 66.5212,585.395 " />
<polyline points="-52.4793,591.357 66.5212,591.357 " />
<polyline points="-52.6179,597.32 66.5212,597.32 " />
<polyline points="170.506,38.3232 172.806,35.5827 " />
<polyline points="198.101,5.43721 200.401,2.69671 " />
<polyline points="177.125,74.2024 179.424,71.4619 " />
<polyline points="204.719,41.3164 207.019,38.5759 " />
<polyline points="232.314,8.43046 234.613,5.68996 " />
<polyline points="183.743,110.082 186.043,107.341 " />
<polyline points="211.338,77.1956 213.637,74.4551 " />
<polyline points="238.932,44.3097 241.232,41.5692 " />
<polyline points="266.527,11.4237 268.826,8.68321 " />
<polyline points="190.361,145.961 192.661,143.22 " />
<polyline points="217.956,113.075 220.256,110.334 " />
<polyline points="245.551,80.1889 247.85,77.4484 " />
<polyline points="273.145,47.3029 275.445,44.5624 " />
<polyline points="300.74,14.417 303.039,11.6765 " />
<polyline points="169.385,214.726 171.685,211.986 " />
<polyline points="196.98,181.84 199.279,179.1 " />
<polyline points="224.574,148.954 226.874,146.214 " />
<polyline points="252.169,116.068 254.469,113.328 " />
<polyline points="279.764,83.1821 282.063,80.4416 " />
<polyline points="307.358,50.2962 309.658,47.5557 " />
<polyline points="334.953,17.4102 337.252,14.6697 " />
<polyline points="176.004,250.605 178.303,247.865 " />
<polyline points="203.598,217.719 205.898,214.979 " />
<polyline points="231.193,184.833 233.492,182.093 " />
<polyline points="258.787,151.947 261.087,149.207 " />
<polyline points="286.382,119.061 288.682,116.321 " />
<polyline points="313.977,86.1754 316.276,83.4349 " />
<polyline points="341.571,53.2894 343.871,50.5489 " />
<polyline points="182.622,286.484 184.922,283.744 " />
<polyline points="210.217,253.598 212.516,250.858 " />
<polyline points="237.811,220.713 240.111,217.972 " />
<polyline points="265.406,187.827 267.705,185.086 " />
<polyline points="293,154.941 295.3,152.2 " />
<polyline points="320.595,122.055 322.895,119.314 " />
<polyline points="189.24,322.364 191.54,319.623 " />
<polyline points="216.835,289.478 219.135,286.737 " />
<polyline points="244.43,256.592 246.729,253.851 " />
<polyline points="272.024,223.706 274.324,220.965 " />
<polyline points="299.619,190.82 301.918,188.079 " />
<polyline points="327.213,157.934 329.513,155.193 " />
<polyline points="168.264,391.129 170.564,388.388 " />
<polyline points="195.859,358.243 198.158,355.502 " />
<polyline points="223.453,325.357 225.753,322.616 " />
<polyline points="251.048,292.471 253.348,289.73 " />
<polyline points="278.643,259.585 280.942,256.844 " />
<polyline points="306.237,226.699 308.537,223.959 " />
<polyline points="333.832,193.813 336.131,191.073 " />
<polyline points="230.072,361.236 232.371,358.496 " />
<polyline points="257.666,328.35 259.966,325.61 " />
<polyline points="285.261,295.464 287.56,292.724 " />
<polyline points="312.856,262.578 315.155,259.838 " />
<polyline points="340.45,229.692 342.75,226.952 " />
<polyline points="264.285,364.229 266.584,361.489 " />
<polyline points="291.879,331.343 294.179,328.603 " />
<polyline points="319.474,298.457 321.773,295.717 " />
<polyline points="347.069,265.571 347.812,264.685 " />
<polyline points="298.498,367.223 300.797,364.482 " />
<polyline points="326.092,334.337 328.392,331.596 " />
<polyline points="332.711,370.216 335.01,367.475 " />
<polyline points="198.101,5.43721 200.952,5.68665 " />
<polyline points="232.314,8.43046 235.165,8.6799 " />
<polyline points="266.527,11.4237 269.378,11.6731 " />
<polyline points="300.74,14.417 303.591,14.6664 " />
<polyline points="334.953,17.4102 337.804,17.6596 " />
<polyline points="170.506,38.3232 173.357,38.5726 " />
<polyline points="204.719,41.3164 207.57,41.5659 " />
<polyline points="238.932,44.3097 241.783,44.5591 " />
<polyline points="273.145,47.3029 275.996,47.5524 " />
<polyline points="307.358,50.2962 310.209,50.5456 " />
<polyline points="341.571,53.2894 344.422,53.5389 " />
<polyline points="177.125,74.2024 179.976,74.4518 " />
<polyline points="211.338,77.1956 214.189,77.4451 " />
<polyline points="245.551,80.1889 248.402,80.4383 " />
<polyline points="279.764,83.1821 282.615,83.4316 " />
<polyline points="313.977,86.1754 316.828,86.4248 " />
<polyline points="183.743,110.082 186.594,110.331 " />
<polyline points="217.956,113.075 220.807,113.324 " />
<polyline points="252.169,116.068 255.02,116.318 " />
<polyline points="286.382,119.061 289.233,119.311 " />
<polyline points="320.595,122.055 323.446,122.304 " />
<polyline points="190.361,145.961 193.213,146.21 " />
<polyline points="224.574,148.954 227.426,149.204 " />
<polyline points="258.787,151.947 261.639,152.197 " />
<polyline points="293,154.941 295.851,155.19 " />
<polyline points="327.213,157.934 330.064,158.183 " />
<polyline points="196.98,181.84 199.831,182.089 " />
<polyline points="231.193,184.833 234.044,185.083 " />
<polyline points="265.406,187.827 268.257,188.076 " />
<polyline points="299.619,190.82 302.47,191.069 " />
<polyline points="333.832,193.813 336.683,194.062 " />
<polyline points="169.385,214.726 172.236,214.975 " />
<polyline points="203.598,217.719 206.449,217.969 " />
<polyline points="237.811,220.713 240.662,220.962 " />
<polyline points="272.024,223.706 274.875,223.955 " />
<polyline points="306.237,226.699 309.088,226.948 " />
<polyline points="340.45,229.692 343.301,229.942 " />
<polyline points="176.004,250.605 178.855,250.855 " />
<polyline points="210.217,253.598 213.068,253.848 " />
<polyline points="244.43,256.592 247.281,256.841 " />
<polyline points="278.643,259.585 281.494,259.834 " />
<polyline points="312.856,262.578 315.707,262.828 " />
<polyline points="347.069,265.571 347.812,265.637 " />
<polyline points="182.622,286.484 185.473,286.734 " />
<polyline points="216.835,289.478 219.686,289.727 " />
<polyline points="251.048,292.471 253.899,292.72 " />
<polyline points="285.261,295.464 288.112,295.714 " />
<polyline points="319.474,298.457 322.325,298.707 " />
<polyline points="189.24,322.364 192.091,322.613 " />
<polyline points="223.453,325.357 226.304,325.606 " />
<polyline points="257.666,328.35 260.517,328.6 " />
<polyline points="291.879,331.343 294.73,331.593 " />
<polyline points="326.092,334.337 328.943,334.586 " />
<polyline points="195.859,358.243 198.71,358.492 " />
<polyline points="230.072,361.236 232.923,361.486 " />
<polyline points="264.285,364.229 267.136,364.479 " />
<polyline points="298.498,367.223 301.349,367.472 " />
<polyline points="332.711,370.216 335.562,370.465 " />
<polyline points="171.069,391.129 170.564,388.388 " />
<polyline points="198.71,358.492 198.158,355.502 " />
<polyline points="192.092,322.613 191.54,319.623 " />
<polyline points="185.473,286.734 184.922,283.744 " />
<polyline points="178.855,250.855 178.303,247.865 " />
<polyline points="172.236,214.975 171.685,211.986 " />
<polyline points="232.923,361.486 232.371,358.496 " />
<polyline points="226.304,325.606 225.753,322.616 " />
<polyline points="219.686,289.727 219.135,286.737 " />
<polyline points="213.068,253.848 212.516,250.858 " />
<polyline points="206.449,217.969 205.898,214.979 " />
<polyline points="199.831,182.09 199.28,179.1 " />
<polyline points="193.213,146.21 192.661,143.22 " />
<polyline points="186.594,110.331 186.043,107.341 " />
<polyline points="179.976,74.4518 179.425,71.4619 " />
<polyline points="173.358,38.5726 172.806,35.5827 " />
<polyline points="267.136,364.479 266.584,361.489 " />
<polyline points="260.517,328.6 259.966,325.61 " />
<polyline points="253.899,292.72 253.348,289.731 " />
<polyline points="247.281,256.841 246.729,253.851 " />
<polyline points="240.662,220.962 240.111,217.972 " />
<polyline points="234.044,185.083 233.493,182.093 " />
<polyline points="227.426,149.204 226.874,146.214 " />
<polyline points="220.807,113.324 220.256,110.334 " />
<polyline points="214.189,77.4451 213.638,74.4552 " />
<polyline points="207.571,41.5659 207.019,38.576 " />
<polyline points="200.952,5.68667 200.401,2.69674 " />
<polyline points="301.349,367.472 300.797,364.482 " />
<polyline points="294.73,331.593 294.179,328.603 " />
<polyline points="288.112,295.714 287.561,292.724 " />
<polyline points="281.494,259.835 280.942,256.845 " />
<polyline points="274.875,223.955 274.324,220.965 " />
<polyline points="268.257,188.076 267.706,185.086 " />
<polyline points="261.639,152.197 261.087,149.207 " />
<polyline points="255.02,116.318 254.469,113.328 " />
<polyline points="248.402,80.4384 247.85,77.4485 " />
<polyline points="241.784,44.5592 241.232,41.5692 " />
<polyline points="235.165,8.67995 234.614,5.69001 " />
<polyline points="335.562,370.465 335.01,367.476 " />
<polyline points="328.943,334.586 328.392,331.596 " />
<polyline points="322.325,298.707 321.774,295.717 " />
<polyline points="315.707,262.828 315.155,259.838 " />
<polyline points="309.088,226.949 308.537,223.959 " />
<polyline points="302.47,191.069 301.918,188.079 " />
<polyline points="295.852,155.19 295.3,152.2 " />
<polyline points="289.233,119.311 288.682,116.321 " />
<polyline points="282.615,83.4317 282.063,80.4417 " />
<polyline points="275.997,47.5524 275.445,44.5625 " />
<polyline points="269.378,11.6732 268.827,8.68329 " />
<polyline points="343.301,229.942 342.75,226.952 " />
<polyline points="336.683,194.063 336.131,191.073 " />
<polyline points="330.065,158.183 329.513,155.193 " />
<polyline points="323.446,122.304 322.895,119.314 " />
<polyline points="316.828,86.4249 316.276,83.435 " />
<polyline points="310.21,50.5457 309.658,47.5558 " />
<polyline points="303.591,14.6665 303.04,11.6766 " />
<polyline points="344.423,53.539 343.871,50.5491 " />
<polyline points="337.804,17.6598 337.253,14.6698 " />
<polyline points="174.903,8.96282 178.619,5.09073 " />
<polyline points="181.227,63.323 184.943,59.4509 " />
<polyline points="225.81,16.858 229.525,12.9859 " />
<polyline points="187.551,117.683 191.266,113.811 " />
<polyline points="232.134,71.2182 235.849,67.3461 " />
<polyline points="276.717,24.7532 280.432,20.8811 " />
<polyline points="193.875,172.043 197.59,168.171 " />
<polyline points="238.458,125.578 242.173,121.706 " />
<polyline points="283.041,79.1134 286.756,75.2413 " />
<polyline points="327.624,32.6484 331.339,28.7763 " />
<polyline points="200.199,226.404 203.914,222.531 " />
<polyline points="244.782,179.939 248.497,176.066 " />
<polyline points="289.365,133.474 293.08,129.601 " />
<polyline points="333.948,87.0085 337.663,83.1365 " />
<polyline points="206.523,280.764 210.238,276.892 " />
<polyline points="251.106,234.299 254.821,230.427 " />
<polyline points="295.689,187.834 299.404,183.962 " />
<polyline points="340.272,141.369 343.987,137.497 " />
<polyline points="168.264,381.589 171.979,377.717 " />
<polyline points="212.847,335.124 216.562,331.252 " />
<polyline points="257.43,288.659 261.145,284.787 " />
<polyline points="302.013,242.194 305.728,238.322 " />
<polyline points="346.596,195.729 347.812,194.461 " />
<polyline points="219.171,389.484 222.886,385.612 " />
<polyline points="263.754,343.019 267.469,339.147 " />
<polyline points="308.337,296.554 312.052,292.682 " />
<polyline points="314.661,350.914 318.376,347.042 " />
<polyline points="172.506,382.247 171.979,377.717 " />
<polyline points="223.413,390.142 222.886,385.612 " />
<polyline points="217.089,335.782 216.562,331.252 " />
<polyline points="210.765,281.422 210.238,276.892 " />
<polyline points="204.442,227.062 203.915,222.532 " />
<polyline points="198.118,172.701 197.591,168.171 " />
<polyline points="191.794,118.341 191.267,113.811 " />
<polyline points="185.47,63.981 184.943,59.451 " />
<polyline points="179.146,9.6208 178.619,5.09079 " />
<polyline points="267.996,343.677 267.469,339.147 " />
<polyline points="261.672,289.317 261.145,284.787 " />
<polyline points="255.348,234.957 254.821,230.427 " />
<polyline points="249.025,180.597 248.498,176.067 " />
<polyline points="242.701,126.236 242.174,121.706 " />
<polyline points="236.377,71.8762 235.85,67.3462 " />
<polyline points="230.053,17.516 229.526,12.986 " />
<polyline points="318.903,351.572 318.376,347.042 " />
<polyline points="312.579,297.212 312.052,292.682 " />
<polyline points="306.255,242.852 305.728,238.322 " />
<polyline points="299.931,188.492 299.404,183.962 " />
<polyline points="293.607,134.132 293.08,129.602 " />
<polyline points="287.284,79.7714 286.757,75.2414 " />
<polyline points="280.96,25.4112 280.433,20.8812 " />
<polyline points="344.514,142.027 343.987,137.497 " />
<polyline points="338.19,87.6666 337.663,83.1366 " />
<polyline points="331.867,33.3064 331.34,28.7764 " />
<polyline points="174.903,8.96282 179.146,9.62075 " />
<polyline points="225.81,16.858 230.052,17.5159 " />
<polyline points="276.717,24.7532 280.959,25.4111 " />
<polyline points="327.624,32.6484 331.866,33.3063 " />
<polyline points="181.227,63.323 185.47,63.9809 " />
<polyline points="232.134,71.2182 236.376,71.8761 " />
<polyline points="283.041,79.1134 287.283,79.7713 " />
<polyline points="333.948,87.0085 338.19,87.6665 " />
<polyline points="187.551,117.683 191.793,118.341 " />
<polyline points="238.458,125.578 242.7,126.236 " />
<polyline points="289.365,133.474 293.607,134.131 " />
<polyline points="340.272,141.369 344.514,142.027 " />
<polyline points="193.875,172.043 198.117,172.701 " />
<polyline points="244.782,179.939 249.024,180.596 " />
<polyline points="295.689,187.834 299.931,188.492 " />
<polyline points="346.596,195.729 347.812,195.918 " />
<polyline points="200.199,226.404 204.441,227.061 " />
<polyline points="251.106,234.299 255.348,234.957 " />
<polyline points="302.013,242.194 306.255,242.852 " />
<polyline points="206.523,280.764 210.765,281.422 " />
<polyline points="257.43,288.659 261.672,289.317 " />
<polyline points="308.337,296.554 312.579,297.212 " />
<polyline points="212.847,335.124 217.089,335.782 " />
<polyline points="263.754,343.019 267.996,343.677 " />
<polyline points="314.661,350.914 318.903,351.572 " />
<polyline points="168.264,381.589 172.506,382.247 " />
<polyline points="219.171,389.484 223.413,390.142 " />
<polyline points="192.072,15.0558 195.412,13.7738 " />
<polyline points="180.466,49.6451 183.806,48.3631 " />
<polyline points="220.544,34.2606 223.884,32.9785 " />
<polyline points="260.622,18.876 263.962,17.5939 " />
<polyline points="300.7,3.49138 304.04,2.20933 " />
<polyline points="168.86,84.2345 172.2,82.9524 " />
<polyline points="208.938,68.8499 212.278,67.5678 " />
<polyline points="249.016,53.4653 252.356,52.1832 " />
<polyline points="289.094,38.0807 292.434,36.7987 " />
<polyline points="329.173,22.6961 332.512,21.4141 " />
<polyline points="197.332,103.439 200.672,102.157 " />
<polyline points="237.41,88.0546 240.75,86.7726 " />
<polyline points="277.488,72.67 280.828,71.388 " />
<polyline points="317.567,57.2854 320.906,56.0034 " />
<polyline points="185.726,138.029 189.066,136.746 " />
<polyline points="225.804,122.644 229.144,121.362 " />
<polyline points="265.882,107.259 269.222,105.977 " />
<polyline points="305.961,91.8748 309.3,90.5927 " />
<polyline points="346.039,76.4902 347.812,75.8095 " />
<polyline points="174.12,172.618 177.46,171.336 " />
<polyline points="214.198,157.233 217.538,155.951 " />
<polyline points="254.276,141.849 257.616,140.567 " />
<polyline points="294.355,126.464 297.694,125.182 " />
<polyline points="334.433,111.079 337.773,109.797 " />
<polyline points="202.592,191.823 205.932,190.541 " />
<polyline points="242.67,176.438 246.01,175.156 " />
<polyline points="282.748,161.053 286.088,159.771 " />
<polyline points="322.827,145.669 326.167,144.387 " />
<polyline points="190.986,226.412 194.326,225.13 " />
<polyline points="231.064,211.027 234.404,209.745 " />
<polyline points="271.142,195.643 274.482,194.361 " />
<polyline points="311.221,180.258 314.561,178.976 " />
<polyline points="179.38,261.001 182.72,259.719 " />
<polyline points="219.458,245.617 222.798,244.335 " />
<polyline points="259.536,230.232 262.876,228.95 " />
<polyline points="299.615,214.847 302.954,213.565 " />
<polyline points="339.693,199.463 343.033,198.181 " />
<polyline points="168.264,295.402 171.114,294.308 " />
<polyline points="207.852,280.206 211.192,278.924 " />
<polyline points="247.93,264.821 251.27,263.539 " />
<polyline points="288.009,249.437 291.348,248.155 " />
<polyline points="328.087,234.052 331.427,232.77 " />
<polyline points="196.246,314.795 199.586,313.513 " />
<polyline points="236.324,299.411 239.664,298.129 " />
<polyline points="276.403,284.026 279.742,282.744 " />
<polyline points="316.481,268.642 319.821,267.359 " />
<polyline points="184.64,349.385 187.98,348.103 " />
<polyline points="224.718,334 228.058,332.718 " />
<polyline points="264.797,318.615 268.136,317.333 " />
<polyline points="304.875,303.231 308.215,301.949 " />
<polyline points="344.953,287.846 347.812,286.749 " />
<polyline points="173.034,383.974 176.374,382.692 " />
<polyline points="213.112,368.589 216.452,367.307 " />
<polyline points="253.191,353.205 256.53,351.923 " />
<polyline points="293.269,337.82 296.609,336.538 " />
<polyline points="333.347,322.436 336.687,321.154 " />
<polyline points="241.585,387.794 244.924,386.512 " />
<polyline points="281.663,372.409 285.003,371.127 " />
<polyline points="321.741,357.025 325.081,355.743 " />
<polyline points="311.399,391.129 313.475,390.332 " />
<polyline points="300.7,3.49138 303.073,5.09178 " />
<polyline points="329.173,22.6961 331.545,24.2965 " />
<polyline points="232.15,-0.328764 234.523,1.27163 " />
<polyline points="260.622,18.876 262.995,20.4764 " />
<polyline points="289.094,38.0807 291.467,39.6811 " />
<polyline points="317.567,57.2854 319.939,58.8858 " />
<polyline points="346.039,76.4902 347.812,77.6863 " />
<polyline points="192.072,15.0558 194.444,16.6562 " />
<polyline points="220.544,34.2606 222.917,35.861 " />
<polyline points="249.016,53.4653 251.389,55.0657 " />
<polyline points="277.488,72.67 279.861,74.2704 " />
<polyline points="305.961,91.8748 308.333,93.4752 " />
<polyline points="334.433,111.079 336.805,112.68 " />
<polyline points="180.466,49.6451 182.838,51.2455 " />
<polyline points="208.938,68.8499 211.311,70.4503 " />
<polyline points="237.41,88.0546 239.783,89.655 " />
<polyline points="265.882,107.259 268.255,108.86 " />
<polyline points="294.355,126.464 296.727,128.064 " />
<polyline points="322.827,145.669 325.199,147.269 " />
<polyline points="168.86,84.2345 171.232,85.8349 " />
<polyline points="197.332,103.439 199.705,105.04 " />
<polyline points="225.804,122.644 228.177,124.244 " />
<polyline points="254.276,141.849 256.649,143.449 " />
<polyline points="282.748,161.053 285.121,162.654 " />
<polyline points="311.221,180.258 313.593,181.859 " />
<polyline points="339.693,199.463 342.066,201.063 " />
<polyline points="185.726,138.029 188.099,139.629 " />
<polyline points="214.198,157.233 216.571,158.834 " />
<polyline points="242.67,176.438 245.043,178.038 " />
<polyline points="271.142,195.643 273.515,197.243 " />
<polyline points="299.615,214.847 301.987,216.448 " />
<polyline points="328.087,234.052 330.46,235.653 " />
<polyline points="174.12,172.618 176.493,174.218 " />
<polyline points="202.592,191.823 204.965,193.423 " />
<polyline points="231.064,211.027 233.437,212.628 " />
<polyline points="259.536,230.232 261.909,231.832 " />
<polyline points="288.009,249.437 290.381,251.037 " />
<polyline points="316.481,268.642 318.853,270.242 " />
<polyline points="344.953,287.846 347.326,289.447 " />
<polyline points="190.986,226.412 193.359,228.012 " />
<polyline points="219.458,245.617 221.831,247.217 " />
<polyline points="247.93,264.821 250.303,266.422 " />
<polyline points="276.403,284.026 278.775,285.627 " />
<polyline points="304.875,303.231 307.247,304.831 " />
<polyline points="333.347,322.436 335.72,324.036 " />
<polyline points="179.38,261.001 181.753,262.602 " />
<polyline points="207.852,280.206 210.225,281.806 " />
<polyline points="236.324,299.411 238.697,301.011 " />
<polyline points="264.797,318.615 267.169,320.216 " />
<polyline points="293.269,337.82 295.641,339.421 " />
<polyline points="321.741,357.025 324.114,358.625 " />
<polyline points="168.264,295.921 170.147,297.191 " />
<polyline points="196.246,314.795 198.619,316.396 " />
<polyline points="224.718,334 227.091,335.6 " />
<polyline points="253.191,353.205 255.563,354.805 " />
<polyline points="281.663,372.409 284.035,374.01 " />
<polyline points="184.64,349.385 187.013,350.985 " />
<polyline points="213.112,368.589 215.485,370.19 " />
<polyline points="241.585,387.794 243.957,389.394 " />
<polyline points="173.034,383.974 175.407,385.574 " />
<polyline points="171.233,85.8349 172.2,82.9524 " />
<polyline points="182.839,51.2455 183.806,48.3631 " />
<polyline points="194.445,16.6562 195.412,13.7738 " />
<polyline points="176.493,174.218 177.46,171.336 " />
<polyline points="188.099,139.629 189.066,136.746 " />
<polyline points="199.705,105.04 200.672,102.157 " />
<polyline points="211.311,70.4503 212.278,67.5679 " />
<polyline points="222.917,35.861 223.884,32.9785 " />
<polyline points="234.523,1.27168 235.49,-1.61076 " />
<polyline points="170.147,297.191 171.114,294.308 " />
<polyline points="181.753,262.602 182.72,259.719 " />
<polyline points="193.359,228.012 194.326,225.13 " />
<polyline points="204.965,193.423 205.932,190.541 " />
<polyline points="216.571,158.834 217.538,155.951 " />
<polyline points="228.177,124.244 229.144,121.362 " />
<polyline points="239.783,89.6551 240.75,86.7726 " />
<polyline points="251.389,55.0657 252.356,52.1833 " />
<polyline points="262.995,20.4764 263.962,17.594 " />
<polyline points="175.407,385.574 176.374,382.692 " />
<polyline points="187.013,350.985 187.98,348.103 " />
<polyline points="198.619,316.396 199.586,313.513 " />
<polyline points="210.225,281.806 211.192,278.924 " />
<polyline points="221.831,247.217 222.798,244.335 " />
<polyline points="233.437,212.628 234.404,209.745 " />
<polyline points="245.043,178.038 246.01,175.156 " />
<polyline points="256.649,143.449 257.616,140.567 " />
<polyline points="268.255,108.86 269.222,105.977 " />
<polyline points="279.861,74.2705 280.828,71.3881 " />
<polyline points="291.467,39.6812 292.435,36.7988 " />
<polyline points="303.073,5.09188 304.041,2.20944 " />
<polyline points="215.485,370.19 216.452,367.307 " />
<polyline points="227.091,335.6 228.058,332.718 " />
<polyline points="238.697,301.011 239.664,298.129 " />
<polyline points="250.303,266.422 251.27,263.539 " />
<polyline points="261.909,231.833 262.876,228.95 " />
<polyline points="273.515,197.243 274.482,194.361 " />
<polyline points="285.121,162.654 286.089,159.771 " />
<polyline points="296.727,128.065 297.695,125.182 " />
<polyline points="308.333,93.4753 309.301,90.5928 " />
<polyline points="319.94,58.886 320.907,56.0035 " />
<polyline points="331.546,24.2966 332.513,21.4142 " />
<polyline points="243.957,389.395 244.924,386.512 " />
<polyline points="255.563,354.805 256.53,351.923 " />
<polyline points="267.169,320.216 268.136,317.333 " />
<polyline points="278.775,285.627 279.743,282.744 " />
<polyline points="290.381,251.037 291.349,248.155 " />
<polyline points="301.987,216.448 302.955,213.566 " />
<polyline points="313.594,181.859 314.561,178.976 " />
<polyline points="325.2,147.269 326.167,144.387 " />
<polyline points="336.806,112.68 337.773,109.798 " />
<polyline points="284.035,374.01 285.003,371.128 " />
<polyline points="295.641,339.421 296.609,336.538 " />
<polyline points="307.248,304.831 308.215,301.949 " />
<polyline points="318.854,270.242 319.821,267.36 " />
<polyline points="330.46,235.653 331.427,232.77 " />
<polyline points="342.066,201.063 343.033,198.181 " />
<polyline points="313.207,391.129 313.475,390.332 " />
<polyline points="324.114,358.625 325.081,355.743 " />
<polyline points="335.72,324.036 336.687,321.154 " />
<polyline points="347.326,289.447 347.812,287.997 " />
<polyline points="168.264,5.2834 168.264,5.2834 " />
<polyline points="168.264,5.2834 168.264,5.2834 " />
<polyline points="168.264,5.2834 168.264,5.2834 " />
<polyline points="168.264,20.7172 168.264,20.7172 " />
<polyline points="168.264,20.7172 168.264,20.7172 " />
<polyline points="168.264,20.7172 168.264,20.7172 " />
<polyline points="182.185,10.0357 182.185,10.0357 " />
<polyline points="168.264,36.151 168.264,36.151 " />
<polyline points="168.264,36.151 168.264,36.151 " />
<polyline points="168.264,36.151 168.264,36.151 " />
<polyline points="181.605,25.9145 181.605,25.9145 " />
<polyline points="206.278,6.98201 206.278,6.98201 " />
<polyline points="168.264,51.5849 168.264,51.5849 " />
<polyline points="168.264,51.5849 168.264,51.5849 " />
<polyline points="168.264,51.5849 168.264,51.5849 " />
<polyline points="181.025,41.7934 181.025,41.7934 " />
<polyline points="205.698,22.8609 205.698,22.8609 " />
<polyline points="231.052,3.40567 231.052,3.40567 " />
<polyline points="168.264,67.0187 168.264,67.0187 " />
<polyline points="168.264,67.0187 168.264,67.0187 " />
<polyline points="168.264,67.0187 168.264,67.0187 " />
<polyline points="180.445,57.6723 180.445,57.6723 " />
<polyline points="205.118,38.7398 205.118,38.7398 " />
<polyline points="230.472,19.2846 230.472,19.2846 " />
<polyline points="255.543,0.04712 255.543,0.04712 " />
<polyline points="168.264,82.4525 168.264,82.4525 " />
<polyline points="168.264,82.4525 168.264,82.4525 " />
<polyline points="168.264,82.4525 168.264,82.4525 " />
<polyline points="179.865,73.5512 179.865,73.5512 " />
<polyline points="204.538,54.6187 204.538,54.6187 " />
<polyline points="229.892,35.1634 229.892,35.1634 " />
<polyline points="254.963,15.926 254.963,15.926 " />
<polyline points="168.264,97.8863 168.264,97.8863 " />
<polyline points="168.264,97.8863 168.264,97.8863 " />
<polyline points="168.264,97.8863 168.264,97.8863 " />
<polyline points="179.285,89.4301 179.285,89.4301 " />
<polyline points="203.958,70.4975 203.958,70.4975 " />
<polyline points="229.312,51.0423 229.312,51.0423 " />
<polyline points="254.383,31.8049 254.383,31.8049 " />
<polyline points="279.056,12.8723 279.056,12.8723 " />
<polyline points="168.264,113.32 168.264,113.32 " />
<polyline points="168.264,113.32 168.264,113.32 " />
<polyline points="168.264,113.32 168.264,113.32 " />
<polyline points="178.704,105.309 178.704,105.309 " />
<polyline points="203.378,86.3764 203.378,86.3764 " />
<polyline points="228.732,66.9212 228.732,66.9212 " />
<polyline points="253.803,47.6838 253.803,47.6838 " />
<polyline points="278.476,28.7512 278.476,28.7512 " />
<polyline points="303.831,9.29601 303.831,9.29601 " />
<polyline points="168.264,128.754 168.264,128.754 " />
<polyline points="168.264,128.754 168.264,128.754 " />
<polyline points="168.264,128.754 168.264,128.754 " />
<polyline points="178.124,121.188 178.124,121.188 " />
<polyline points="202.798,102.255 202.798,102.255 " />
<polyline points="228.152,82.8001 228.152,82.8001 " />
<polyline points="253.223,63.5627 253.223,63.5627 " />
<polyline points="277.896,44.6301 277.896,44.6301 " />
<polyline points="303.251,25.1749 303.251,25.1749 " />
<polyline points="328.322,5.93746 328.322,5.93746 " />
<polyline points="168.264,144.188 168.264,144.188 " />
<polyline points="168.264,144.188 168.264,144.188 " />
<polyline points="168.264,144.188 168.264,144.188 " />
<polyline points="177.544,137.067 177.544,137.067 " />
<polyline points="202.218,118.134 202.218,118.134 " />
<polyline points="227.572,98.679 227.572,98.679 " />
<polyline points="252.643,79.4415 252.643,79.4415 " />
<polyline points="277.316,60.509 277.316,60.509 " />
<polyline points="302.671,41.0538 302.671,41.0538 " />
<polyline points="327.742,21.8163 327.742,21.8163 " />
<polyline points="347.812,6.41578 347.812,6.41578 " />
<polyline points="347.812,6.41578 347.812,6.41578 " />
<polyline points="168.264,159.622 168.264,159.622 " />
<polyline points="168.264,159.622 168.264,159.622 " />
<polyline points="168.264,159.622 168.264,159.622 " />
<polyline points="176.964,152.946 176.964,152.946 " />
<polyline points="201.638,134.013 201.638,134.013 " />
<polyline points="226.992,114.558 226.992,114.558 " />
<polyline points="252.063,95.3204 252.063,95.3204 " />
<polyline points="276.736,76.3879 276.736,76.3879 " />
<polyline points="302.091,56.9327 302.091,56.9327 " />
<polyline points="327.162,37.6952 327.162,37.6952 " />
<polyline points="347.812,21.8496 347.812,21.8496 " />
<polyline points="347.812,21.8496 347.812,21.8496 " />
<polyline points="168.264,175.055 168.264,175.055 " />
<polyline points="168.264,175.055 168.264,175.055 " />
<polyline points="168.264,175.055 168.264,175.055 " />
<polyline points="176.384,168.824 176.384,168.824 " />
<polyline points="201.058,149.892 201.058,149.892 " />
<polyline points="226.412,130.437 226.412,130.437 " />
<polyline points="251.483,111.199 251.483,111.199 " />
<polyline points="276.156,92.2668 276.156,92.2668 " />
<polyline points="301.511,72.8115 301.511,72.8115 " />
<polyline points="326.582,53.5741 326.582,53.5741 " />
<polyline points="347.812,37.2834 347.812,37.2834 " />
<polyline points="347.812,37.2834 347.812,37.2834 " />
<polyline points="168.264,190.489 168.264,190.489 " />
<polyline points="168.264,190.489 168.264,190.489 " />
<polyline points="168.264,190.489 168.264,190.489 " />
<polyline points="175.804,184.703 175.804,184.703 " />
<polyline points="200.478,165.771 200.478,165.771 " />
<polyline points="225.832,146.316 225.832,146.316 " />
<polyline points="250.903,127.078 250.903,127.078 " />
<polyline points="275.576,108.146 275.576,108.146 " />
<polyline points="300.931,88.6904 300.931,88.6904 " />
<polyline points="326.002,69.453 326.002,69.453 " />
<polyline points="347.812,52.7172 347.812,52.7172 " />
<polyline points="347.812,52.7172 347.812,52.7172 " />
<polyline points="168.264,205.923 168.264,205.923 " />
<polyline points="168.264,205.923 168.264,205.923 " />
<polyline points="168.264,205.923 168.264,205.923 " />
<polyline points="175.224,200.582 175.224,200.582 " />
<polyline points="199.898,181.65 199.898,181.65 " />
<polyline points="225.252,162.195 225.252,162.195 " />
<polyline points="250.323,142.957 250.323,142.957 " />
<polyline points="274.996,124.025 274.996,124.025 " />
<polyline points="300.351,104.569 300.351,104.569 " />
<polyline points="325.422,85.3319 325.422,85.3319 " />
<polyline points="347.812,68.1511 347.812,68.1511 " />
<polyline points="347.812,68.1511 347.812,68.1511 " />
<polyline points="168.264,221.357 168.264,221.357 " />
<polyline points="168.264,221.357 168.264,221.357 " />
<polyline points="168.264,221.357 168.264,221.357 " />
<polyline points="174.644,216.461 174.644,216.461 " />
<polyline points="199.318,197.529 199.318,197.529 " />
<polyline points="224.672,178.073 224.672,178.073 " />
<polyline points="249.743,158.836 249.743,158.836 " />
<polyline points="274.416,139.903 274.416,139.903 " />
<polyline points="299.771,120.448 299.771,120.448 " />
<polyline points="324.842,101.211 324.842,101.211 " />
<polyline points="347.812,83.5849 347.812,83.5849 " />
<polyline points="347.812,83.5849 347.812,83.5849 " />
<polyline points="168.264,236.791 168.264,236.791 " />
<polyline points="168.264,236.791 168.264,236.791 " />
<polyline points="168.264,236.791 168.264,236.791 " />
<polyline points="174.064,232.34 174.064,232.34 " />
<polyline points="198.738,213.407 198.738,213.407 " />
<polyline points="224.092,193.952 224.092,193.952 " />
<polyline points="249.163,174.715 249.163,174.715 " />
<polyline points="273.836,155.782 273.836,155.782 " />
<polyline points="299.191,136.327 299.191,136.327 " />
<polyline points="324.262,117.09 324.262,117.09 " />
<polyline points="347.812,99.0187 347.812,99.0187 " />
<polyline points="347.812,99.0187 347.812,99.0187 " />
<polyline points="168.264,252.224 168.264,252.224 " />
<polyline points="168.264,252.224 168.264,252.224 " />
<polyline points="168.264,252.224 168.264,252.224 " />
<polyline points="173.484,248.219 173.484,248.219 " />
<polyline points="198.158,229.286 198.158,229.286 " />
<polyline points="223.512,209.831 223.512,209.831 " />
<polyline points="248.583,190.594 248.583,190.594 " />
<polyline points="273.256,171.661 273.256,171.661 " />
<polyline points="298.611,152.206 298.611,152.206 " />
<polyline points="323.682,132.969 323.682,132.969 " />
<polyline points="347.812,114.453 347.812,114.453 " />
<polyline points="347.812,114.453 347.812,114.453 " />
<polyline points="168.264,267.658 168.264,267.658 " />
<polyline points="168.264,267.658 168.264,267.658 " />
<polyline points="168.264,267.658 168.264,267.658 " />
<polyline points="172.904,264.098 172.904,264.098 " />
<polyline points="197.578,245.165 197.578,245.165 " />
<polyline points="222.932,225.71 222.932,225.71 " />
<polyline points="248.003,206.473 248.003,206.473 " />
<polyline points="272.676,187.54 272.676,187.54 " />
<polyline points="298.031,168.085 298.031,168.085 " />
<polyline points="323.102,148.847 323.102,148.847 " />
<polyline points="347.775,129.915 347.775,129.915 " />
<polyline points="347.812,129.886 347.812,129.886 " />
<polyline points="168.264,283.092 168.264,283.092 " />
<polyline points="168.264,283.092 168.264,283.092 " />
<polyline points="168.264,283.092 168.264,283.092 " />
<polyline points="172.324,279.977 172.324,279.977 " />
<polyline points="196.998,261.044 196.998,261.044 " />
<polyline points="222.352,241.589 222.352,241.589 " />
<polyline points="247.423,222.351 247.423,222.351 " />
<polyline points="272.096,203.419 272.096,203.419 " />
<polyline points="297.451,183.964 297.451,183.964 " />
<polyline points="322.522,164.726 322.522,164.726 " />
<polyline points="347.195,145.794 347.195,145.794 " />
<polyline points="347.812,145.32 347.812,145.32 " />
<polyline points="168.264,298.526 168.264,298.526 " />
<polyline points="168.264,298.526 168.264,298.526 " />
<polyline points="168.264,298.526 168.264,298.526 " />
<polyline points="171.744,295.856 171.744,295.856 " />
<polyline points="196.418,276.923 196.418,276.923 " />
<polyline points="221.772,257.468 221.772,257.468 " />
<polyline points="246.843,238.23 246.843,238.23 " />
<polyline points="271.516,219.298 271.516,219.298 " />
<polyline points="296.871,199.843 296.871,199.843 " />
<polyline points="321.941,180.605 321.941,180.605 " />
<polyline points="346.615,161.673 346.615,161.673 " />
<polyline points="347.812,160.754 347.812,160.754 " />
<polyline points="168.264,313.96 168.264,313.96 " />
<polyline points="168.264,313.96 168.264,313.96 " />
<polyline points="168.264,313.96 168.264,313.96 " />
<polyline points="171.164,311.734 171.164,311.734 " />
<polyline points="195.838,292.802 195.838,292.802 " />
<polyline points="221.192,273.347 221.192,273.347 " />
<polyline points="246.263,254.109 246.263,254.109 " />
<polyline points="270.936,235.177 270.936,235.177 " />
<polyline points="296.291,215.721 296.291,215.721 " />
<polyline points="321.361,196.484 321.361,196.484 " />
<polyline points="346.035,177.552 346.035,177.552 " />
<polyline points="347.812,176.188 347.812,176.188 " />
<polyline points="168.264,329.394 168.264,329.394 " />
<polyline points="168.264,329.394 168.264,329.394 " />
<polyline points="168.264,329.394 168.264,329.394 " />
<polyline points="170.584,327.613 170.584,327.613 " />
<polyline points="195.258,308.681 195.258,308.681 " />
<polyline points="220.612,289.226 220.612,289.226 " />
<polyline points="245.683,269.988 245.683,269.988 " />
<polyline points="270.356,251.056 270.356,251.056 " />
<polyline points="295.711,231.6 295.711,231.6 " />
<polyline points="320.781,212.363 320.781,212.363 " />
<polyline points="345.455,193.43 345.455,193.43 " />
<polyline points="347.812,191.622 347.812,191.622 " />
<polyline points="168.264,344.827 168.264,344.827 " />
<polyline points="168.264,344.827 168.264,344.827 " />
<polyline points="168.264,344.827 168.264,344.827 " />
<polyline points="170.004,343.492 170.004,343.492 " />
<polyline points="194.678,324.56 194.678,324.56 " />
<polyline points="220.032,305.104 220.032,305.104 " />
<polyline points="245.103,285.867 245.103,285.867 " />
<polyline points="269.776,266.934 269.776,266.934 " />
<polyline points="295.131,247.479 295.131,247.479 " />
<polyline points="320.201,228.242 320.201,228.242 " />
<polyline points="344.875,209.309 344.875,209.309 " />
<polyline points="347.812,207.055 347.812,207.055 " />
<polyline points="168.264,360.261 168.264,360.261 " />
<polyline points="168.264,360.261 168.264,360.261 " />
<polyline points="168.264,360.261 168.264,360.261 " />
<polyline points="169.424,359.371 169.424,359.371 " />
<polyline points="194.098,340.439 194.098,340.439 " />
<polyline points="219.452,320.983 219.452,320.983 " />
<polyline points="244.523,301.746 244.523,301.746 " />
<polyline points="269.196,282.813 269.196,282.813 " />
<polyline points="294.551,263.358 294.551,263.358 " />
<polyline points="319.621,244.121 319.621,244.121 " />
<polyline points="344.295,225.188 344.295,225.188 " />
<polyline points="347.812,222.489 347.812,222.489 " />
<polyline points="168.264,375.695 168.264,375.695 " />
<polyline points="168.264,375.695 168.264,375.695 " />
<polyline points="168.264,375.695 168.264,375.695 " />
<polyline points="168.844,375.25 168.844,375.25 " />
<polyline points="193.518,356.317 193.518,356.317 " />
<polyline points="218.872,336.862 218.872,336.862 " />
<polyline points="243.943,317.625 243.943,317.625 " />
<polyline points="268.616,298.692 268.616,298.692 " />
<polyline points="293.971,279.237 293.971,279.237 " />
<polyline points="319.041,260 319.041,260 " />
<polyline points="343.715,241.067 343.715,241.067 " />
<polyline points="347.812,237.923 347.812,237.923 " />
<polyline points="168.264,391.129 168.264,391.129 " />
<polyline points="192.938,372.196 192.938,372.196 " />
<polyline points="218.292,352.741 218.292,352.741 " />
<polyline points="243.363,333.504 243.363,333.504 " />
<polyline points="268.036,314.571 268.036,314.571 " />
<polyline points="293.391,295.116 293.391,295.116 " />
<polyline points="318.461,275.878 318.461,275.878 " />
<polyline points="343.135,256.946 343.135,256.946 " />
<polyline points="347.812,253.357 347.812,253.357 " />
<polyline points="188.378,391.129 188.378,391.129 " />
<polyline points="192.357,388.075 192.357,388.075 " />
<polyline points="217.712,368.62 217.712,368.62 " />
<polyline points="242.783,349.383 242.783,349.383 " />
<polyline points="267.456,330.45 267.456,330.45 " />
<polyline points="292.811,310.995 292.811,310.995 " />
<polyline points="317.881,291.757 317.881,291.757 " />
<polyline points="342.555,272.825 342.555,272.825 " />
<polyline points="347.812,268.791 347.812,268.791 " />
<polyline points="208.492,391.129 208.492,391.129 " />
<polyline points="208.492,391.129 208.492,391.129 " />
<polyline points="217.132,384.499 217.132,384.499 " />
<polyline points="242.203,365.261 242.203,365.261 " />
<polyline points="266.876,346.329 266.876,346.329 " />
<polyline points="292.231,326.874 292.231,326.874 " />
<polyline points="317.301,307.636 317.301,307.636 " />
<polyline points="341.975,288.704 341.975,288.704 " />
<polyline points="347.812,284.225 347.812,284.225 " />
<polyline points="228.605,391.129 228.605,391.129 " />
<polyline points="228.605,391.129 228.605,391.129 " />
<polyline points="228.605,391.129 228.605,391.129 " />
<polyline points="241.623,381.14 241.623,381.14 " />
<polyline points="266.296,362.208 266.296,362.208 " />
<polyline points="291.651,342.753 291.651,342.753 " />
<polyline points="316.721,323.515 316.721,323.515 " />
<polyline points="341.395,304.583 341.395,304.583 " />
<polyline points="347.812,299.658 347.812,299.658 " />
<polyline points="248.719,391.129 248.719,391.129 " />
<polyline points="265.716,378.087 265.716,378.087 " />
<polyline points="291.071,358.631 291.071,358.631 " />
<polyline points="316.141,339.394 316.141,339.394 " />
<polyline points="340.815,320.461 340.815,320.461 " />
<polyline points="347.812,315.092 347.812,315.092 " />
<polyline points="268.833,391.129 268.833,391.129 " />
<polyline points="268.833,391.129 268.833,391.129 " />
<polyline points="290.491,374.51 290.491,374.51 " />
<polyline points="315.561,355.273 315.561,355.273 " />
<polyline points="340.235,336.34 340.235,336.34 " />
<polyline points="347.812,330.526 347.812,330.526 " />
<polyline points="288.947,391.129 288.947,391.129 " />
<polyline points="288.947,391.129 288.947,391.129 " />
<polyline points="289.911,390.389 289.911,390.389 " />
<polyline points="314.981,371.152 314.981,371.152 " />
<polyline points="339.655,352.219 339.655,352.219 " />
<polyline points="347.812,345.96 347.812,345.96 " />
<polyline points="309.06,391.129 309.06,391.129 " />
<polyline points="309.06,391.129 309.06,391.129 " />
<polyline points="309.06,391.129 309.06,391.129 " />
<polyline points="314.401,387.031 314.401,387.031 " />
<polyline points="339.075,368.098 339.075,368.098 " />
<polyline points="347.812,361.394 347.812,361.394 " />
<polyline points="329.174,391.129 329.174,391.129 " />
<polyline points="338.495,383.977 338.495,383.977 " />
<polyline points="347.812,376.827 347.812,376.827 " />
<polyline points="168.264,13.5815 168.264,13.5815 " />
<polyline points="168.264,13.5815 168.264,13.5815 " />
<polyline points="191.861,10.4749 191.861,10.4749 " />
<polyline points="203.802,8.90285 203.802,8.90285 " />
<polyline points="221.868,6.5245 221.868,6.5245 " />
<polyline points="251.992,2.55852 251.992,2.55852 " />
<polyline points="263.933,0.986442 263.933,0.986442 " />
<polyline points="168.264,30.7428 168.264,30.7428 " />
<polyline points="168.264,30.7428 168.264,30.7428 " />
<polyline points="179.313,29.2882 179.313,29.2882 " />
<polyline points="191.254,27.7161 191.254,27.7161 " />
<polyline points="209.319,25.3378 209.319,25.3378 " />
<polyline points="239.444,21.3718 239.444,21.3718 " />
<polyline points="251.385,19.7997 251.385,19.7997 " />
<polyline points="269.45,17.4214 269.45,17.4214 " />
<polyline points="299.575,13.4554 299.575,13.4554 " />
<polyline points="311.516,11.8833 311.516,11.8833 " />
<polyline points="329.581,9.50494 329.581,9.50494 " />
<polyline points="347.812,7.10484 347.812,7.10484 " />
<polyline points="168.264,47.904 168.264,47.904 " />
<polyline points="168.264,47.904 168.264,47.904 " />
<polyline points="168.264,47.904 168.264,47.904 " />
<polyline points="178.706,46.5294 178.706,46.5294 " />
<polyline points="196.771,44.151 196.771,44.151 " />
<polyline points="226.896,40.185 226.896,40.185 " />
<polyline points="238.837,38.613 238.837,38.613 " />
<polyline points="256.902,36.2346 256.902,36.2346 " />
<polyline points="287.027,32.2686 287.027,32.2686 " />
<polyline points="298.968,30.6965 298.968,30.6965 " />
<polyline points="317.033,28.3182 317.033,28.3182 " />
<polyline points="347.158,24.3522 347.158,24.3522 " />
<polyline points="168.264,65.0653 168.264,65.0653 " />
<polyline points="184.223,62.9643 184.223,62.9643 " />
<polyline points="214.347,58.9983 214.347,58.9983 " />
<polyline points="226.288,57.4262 226.288,57.4262 " />
<polyline points="244.354,55.0479 244.354,55.0479 " />
<polyline points="274.478,51.0819 274.478,51.0819 " />
<polyline points="286.42,49.5098 286.42,49.5098 " />
<polyline points="304.485,47.1315 304.485,47.1315 " />
<polyline points="334.61,43.1655 334.61,43.1655 " />
<polyline points="346.551,41.5934 346.551,41.5934 " />
<polyline points="347.812,41.4273 347.812,41.4273 " />
<polyline points="347.812,41.4273 347.812,41.4273 " />
<polyline points="168.264,82.2265 168.264,82.2265 " />
<polyline points="171.674,81.7775 171.674,81.7775 " />
<polyline points="201.799,77.8115 201.799,77.8115 " />
<polyline points="213.74,76.2395 213.74,76.2395 " />
<polyline points="231.806,73.8611 231.806,73.8611 " />
<polyline points="261.93,69.8951 261.93,69.8951 " />
<polyline points="273.871,68.3231 273.871,68.3231 " />
<polyline points="291.937,65.9447 291.937,65.9447 " />
<polyline points="322.061,61.9787 322.061,61.9787 " />
<polyline points="334.002,60.4067 334.002,60.4067 " />
<polyline points="347.812,58.5886 347.812,58.5886 " />
<polyline points="347.812,58.5886 347.812,58.5886 " />
<polyline points="168.264,99.3877 168.264,99.3877 " />
<polyline points="168.264,99.3877 168.264,99.3877 " />
<polyline points="189.251,96.6248 189.251,96.6248 " />
<polyline points="201.192,95.0527 201.192,95.0527 " />
<polyline points="219.257,92.6744 219.257,92.6744 " />
<polyline points="249.382,88.7084 249.382,88.7084 " />
<polyline points="261.323,87.1363 261.323,87.1363 " />
<polyline points="279.388,84.758 279.388,84.758 " />
<polyline points="309.513,80.792 309.513,80.792 " />
<polyline points="321.454,79.2199 321.454,79.2199 " />
<polyline points="339.519,76.8416 339.519,76.8416 " />
<polyline points="347.812,75.7498 347.812,75.7498 " />
<polyline points="168.264,116.549 168.264,116.549 " />
<polyline points="168.264,116.549 168.264,116.549 " />
<polyline points="176.702,115.438 176.702,115.438 " />
<polyline points="188.644,113.866 188.644,113.866 " />
<polyline points="206.709,111.488 206.709,111.488 " />
<polyline points="236.834,107.522 236.834,107.522 " />
<polyline points="248.775,105.95 248.775,105.95 " />
<polyline points="266.84,103.571 266.84,103.571 " />
<polyline points="296.965,99.6052 296.965,99.6052 " />
<polyline points="308.906,98.0332 308.906,98.0332 " />
<polyline points="326.971,95.6548 326.971,95.6548 " />
<polyline points="347.812,92.9111 347.812,92.9111 " />
<polyline points="168.264,133.71 168.264,133.71 " />
<polyline points="168.264,133.71 168.264,133.71 " />
<polyline points="168.264,133.71 168.264,133.71 " />
<polyline points="176.095,132.679 176.095,132.679 " />
<polyline points="194.161,130.301 194.161,130.301 " />
<polyline points="224.285,126.335 224.285,126.335 " />
<polyline points="236.226,124.763 236.226,124.763 " />
<polyline points="254.292,122.384 254.292,122.384 " />
<polyline points="284.416,118.418 284.416,118.418 " />
<polyline points="296.357,116.846 296.357,116.846 " />
<polyline points="314.423,114.468 314.423,114.468 " />
<polyline points="344.547,110.502 344.547,110.502 " />
<polyline points="168.264,150.871 168.264,150.871 " />
<polyline points="181.612,149.114 181.612,149.114 " />
<polyline points="211.737,145.148 211.737,145.148 " />
<polyline points="223.678,143.576 223.678,143.576 " />
<polyline points="241.743,141.198 241.743,141.198 " />
<polyline points="271.868,137.232 271.868,137.232 " />
<polyline points="283.809,135.66 283.809,135.66 " />
<polyline points="301.875,133.281 301.875,133.281 " />
<polyline points="331.999,129.315 331.999,129.315 " />
<polyline points="343.94,127.743 343.94,127.743 " />
<polyline points="347.812,127.234 347.812,127.234 " />
<polyline points="347.812,127.234 347.812,127.234 " />
<polyline points="168.264,168.033 168.264,168.033 " />
<polyline points="169.064,167.927 169.064,167.927 " />
<polyline points="199.189,163.961 199.189,163.961 " />
<polyline points="211.13,162.389 211.13,162.389 " />
<polyline points="229.195,160.011 229.195,160.011 " />
<polyline points="259.32,156.045 259.32,156.045 " />
<polyline points="271.261,154.473 271.261,154.473 " />
<polyline points="289.326,152.095 289.326,152.095 " />
<polyline points="319.451,148.129 319.451,148.129 " />
<polyline points="331.392,146.557 331.392,146.557 " />
<polyline points="347.812,144.395 347.812,144.395 " />
<polyline points="347.812,144.395 347.812,144.395 " />
<polyline points="168.264,185.194 168.264,185.194 " />
<polyline points="168.264,185.194 168.264,185.194 " />
<polyline points="186.64,182.775 186.64,182.775 " />
<polyline points="198.581,181.203 198.581,181.203 " />
<polyline points="216.647,178.824 216.647,178.824 " />
<polyline points="246.771,174.858 246.771,174.858 " />
<polyline points="258.713,173.286 258.713,173.286 " />
<polyline points="276.778,170.908 276.778,170.908 " />
<polyline points="306.903,166.942 306.903,166.942 " />
<polyline points="318.844,165.37 318.844,165.37 " />
<polyline points="336.909,162.991 336.909,162.991 " />
<polyline points="347.812,161.556 347.812,161.556 " />
<polyline points="168.264,202.355 168.264,202.355 " />
<polyline points="168.264,202.355 168.264,202.355 " />
<polyline points="174.092,201.588 174.092,201.588 " />
<polyline points="186.033,200.016 186.033,200.016 " />
<polyline points="204.099,197.638 204.099,197.638 " />
<polyline points="234.223,193.672 234.223,193.672 " />
<polyline points="246.164,192.099 246.164,192.099 " />
<polyline points="264.23,189.721 264.23,189.721 " />
<polyline points="294.354,185.755 294.354,185.755 " />
<polyline points="306.295,184.183 306.295,184.183 " />
<polyline points="324.361,181.805 324.361,181.805 " />
<polyline points="347.812,178.717 347.812,178.717 " />
<polyline points="168.264,219.516 168.264,219.516 " />
<polyline points="168.264,219.516 168.264,219.516 " />
<polyline points="168.264,219.516 168.264,219.516 " />
<polyline points="173.485,218.829 173.485,218.829 " />
<polyline points="191.55,216.451 191.55,216.451 " />
<polyline points="221.675,212.485 221.675,212.485 " />
<polyline points="233.616,210.913 233.616,210.913 " />
<polyline points="251.681,208.534 251.681,208.534 " />
<polyline points="281.806,204.568 281.806,204.568 " />
<polyline points="293.747,202.996 293.747,202.996 " />
<polyline points="311.812,200.618 311.812,200.618 " />
<polyline points="341.937,196.652 341.937,196.652 " />
<polyline points="168.264,236.678 168.264,236.678 " />
<polyline points="179.002,235.264 179.002,235.264 " />
<polyline points="209.127,231.298 209.127,231.298 " />
<polyline points="221.068,229.726 221.068,229.726 " />
<polyline points="239.133,227.348 239.133,227.348 " />
<polyline points="269.258,223.382 269.258,223.382 " />
<polyline points="281.199,221.81 281.199,221.81 " />
<polyline points="299.264,219.431 299.264,219.431 " />
<polyline points="329.389,215.465 329.389,215.465 " />
<polyline points="341.33,213.893 341.33,213.893 " />
<polyline points="347.812,213.04 347.812,213.04 " />
<polyline points="347.812,213.04 347.812,213.04 " />
<polyline points="168.264,253.839 168.264,253.839 " />
<polyline points="168.264,253.839 168.264,253.839 " />
<polyline points="196.578,250.111 196.578,250.111 " />
<polyline points="208.519,248.539 208.519,248.539 " />
<polyline points="226.585,246.161 226.585,246.161 " />
<polyline points="256.709,242.195 256.709,242.195 " />
<polyline points="268.651,240.623 268.651,240.623 " />
<polyline points="286.716,238.244 286.716,238.244 " />
<polyline points="316.841,234.278 316.841,234.278 " />
<polyline points="328.782,232.706 328.782,232.706 " />
<polyline points="346.847,230.328 346.847,230.328 " />
<polyline points="347.812,230.201 347.812,230.201 " />
<polyline points="168.264,271 168.264,271 " />
<polyline points="168.264,271 168.264,271 " />
<polyline points="184.03,268.925 184.03,268.925 " />
<polyline points="195.971,267.352 195.971,267.352 " />
<polyline points="214.036,264.974 214.036,264.974 " />
<polyline points="244.161,261.008 244.161,261.008 " />
<polyline points="256.102,259.436 256.102,259.436 " />
<polyline points="274.168,257.058 274.168,257.058 " />
<polyline points="304.292,253.092 304.292,253.092 " />
<polyline points="316.233,251.52 316.233,251.52 " />
<polyline points="334.299,249.141 334.299,249.141 " />
<polyline points="347.812,247.362 347.812,247.362 " />
<polyline points="168.264,288.161 168.264,288.161 " />
<polyline points="168.264,288.161 168.264,288.161 " />
<polyline points="171.482,287.738 171.482,287.738 " />
<polyline points="183.423,286.166 183.423,286.166 " />
<polyline points="201.488,283.787 201.488,283.787 " />
<polyline points="231.613,279.821 231.613,279.821 " />
<polyline points="243.554,278.249 243.554,278.249 " />
<polyline points="261.619,275.871 261.619,275.871 " />
<polyline points="291.744,271.905 291.744,271.905 " />
<polyline points="303.685,270.333 303.685,270.333 " />
<polyline points="321.75,267.955 321.75,267.955 " />
<polyline points="347.812,264.523 347.812,264.523 " />
<polyline points="168.264,305.323 168.264,305.323 " />
<polyline points="168.264,305.323 168.264,305.323 " />
<polyline points="168.264,305.323 168.264,305.323 " />
<polyline points="170.875,304.979 170.875,304.979 " />
<polyline points="188.94,302.601 188.94,302.601 " />
<polyline points="219.065,298.635 219.065,298.635 " />
<polyline points="231.006,297.063 231.006,297.063 " />
<polyline points="249.071,294.684 249.071,294.684 " />
<polyline points="279.196,290.718 279.196,290.718 " />
<polyline points="291.137,289.146 291.137,289.146 " />
<polyline points="309.202,286.768 309.202,286.768 " />
<polyline points="339.327,282.802 339.327,282.802 " />
<polyline points="168.264,322.484 168.264,322.484 " />
<polyline points="176.392,321.414 176.392,321.414 " />
<polyline points="206.516,317.448 206.516,317.448 " />
<polyline points="218.457,315.876 218.457,315.876 " />
<polyline points="236.523,313.497 236.523,313.497 " />
<polyline points="266.647,309.531 266.647,309.531 " />
<polyline points="278.588,307.959 278.588,307.959 " />
<polyline points="296.654,305.581 296.654,305.581 " />
<polyline points="326.778,301.615 326.778,301.615 " />
<polyline points="338.72,300.043 338.72,300.043 " />
<polyline points="347.812,298.846 347.812,298.846 " />
<polyline points="347.812,298.846 347.812,298.846 " />
<polyline points="168.264,339.645 168.264,339.645 " />
<polyline points="168.264,339.645 168.264,339.645 " />
<polyline points="193.968,336.261 193.968,336.261 " />
<polyline points="205.909,334.689 205.909,334.689 " />
<polyline points="223.974,332.311 223.974,332.311 " />
<polyline points="254.099,328.345 254.099,328.345 " />
<polyline points="266.04,326.773 266.04,326.773 " />
<polyline points="284.105,324.394 284.105,324.394 " />
<polyline points="314.23,320.428 314.23,320.428 " />
<polyline points="326.171,318.856 326.171,318.856 " />
<polyline points="344.237,316.478 344.237,316.478 " />
<polyline points="347.812,316.007 347.812,316.007 " />
<polyline points="168.264,356.806 168.264,356.806 " />
<polyline points="168.264,356.806 168.264,356.806 " />
<polyline points="181.42,355.074 181.42,355.074 " />
<polyline points="193.361,353.502 193.361,353.502 " />
<polyline points="211.426,351.124 211.426,351.124 " />
<polyline points="241.551,347.158 241.551,347.158 " />
<polyline points="253.492,345.586 253.492,345.586 " />
<polyline points="271.557,343.208 271.557,343.208 " />
<polyline points="301.682,339.242 301.682,339.242 " />
<polyline points="313.623,337.67 313.623,337.67 " />
<polyline points="331.688,335.291 331.688,335.291 " />
<polyline points="347.812,333.168 347.812,333.168 " />
<polyline points="168.264,373.968 168.264,373.968 " />
<polyline points="168.264,373.968 168.264,373.968 " />
<polyline points="168.871,373.888 168.871,373.888 " />
<polyline points="180.812,372.316 180.812,372.316 " />
<polyline points="198.878,369.937 198.878,369.937 " />
<polyline points="229.002,365.971 229.002,365.971 " />
<polyline points="240.944,364.399 240.944,364.399 " />
<polyline points="259.009,362.021 259.009,362.021 " />
<polyline points="289.134,358.055 289.134,358.055 " />
<polyline points="301.075,356.483 301.075,356.483 " />
<polyline points="319.14,354.104 319.14,354.104 " />
<polyline points="347.812,350.33 347.812,350.33 " />
<polyline points="298.617,391.129 298.617,391.129 " />
<polyline points="298.617,391.129 298.617,391.129 " />
<polyline points="324.168,387.765 324.168,387.765 " />
<polyline points="336.109,386.193 336.109,386.193 " />
<polyline points="347.812,384.652 347.812,384.652 " />
<polyline points="347.812,384.652 347.812,384.652 " />
<polyline points="333.32,3.242 333.32,3.242 " />
<polyline points="343.377,9.64923 343.377,9.64923 " />
<polyline points="347.812,12.4748 347.812,12.4748 " />
<polyline points="307.856,2.16614 307.856,2.16614 " />
<polyline points="317.914,8.57338 317.914,8.57338 " />
<polyline points="347.812,27.6207 347.812,27.6207 " />
<polyline points="282.393,1.09028 282.393,1.09028 " />
<polyline points="292.451,7.49752 292.451,7.49752 " />
<polyline points="323.83,27.4881 323.83,27.4881 " />
<polyline points="256.93,0.0144271 256.93,0.0144271 " />
<polyline points="266.988,6.42166 266.988,6.42166 " />
<polyline points="298.367,26.4122 298.367,26.4122 " />
<polyline points="340.004,52.9382 340.004,52.9382 " />
<polyline points="347.812,57.9125 347.812,57.9125 " />
<polyline points="347.812,57.9125 347.812,57.9125 " />
<polyline points="241.525,5.34581 241.525,5.34581 " />
<polyline points="272.903,25.3364 272.903,25.3364 " />
<polyline points="314.541,51.8623 314.541,51.8623 " />
<polyline points="324.598,58.2696 324.598,58.2696 " />
<polyline points="347.812,73.0585 347.812,73.0585 " />
<polyline points="216.061,4.26995 216.061,4.26995 " />
<polyline points="247.44,24.2605 247.44,24.2605 " />
<polyline points="289.078,50.7865 289.078,50.7865 " />
<polyline points="299.135,57.1937 299.135,57.1937 " />
<polyline points="330.514,77.1843 330.514,77.1843 " />
<polyline points="190.598,3.19409 190.598,3.19409 " />
<polyline points="221.977,23.1847 221.977,23.1847 " />
<polyline points="263.615,49.7106 263.615,49.7106 " />
<polyline points="273.672,56.1179 273.672,56.1179 " />
<polyline points="305.051,76.1084 305.051,76.1084 " />
<polyline points="346.688,102.634 346.688,102.634 " />
<polyline points="347.812,103.35 347.812,103.35 " />
<polyline points="347.812,103.35 347.812,103.35 " />
<polyline points="168.264,4.11155 168.264,4.11155 " />
<polyline points="168.264,4.11155 168.264,4.11155 " />
<polyline points="196.514,22.1088 196.514,22.1088 " />
<polyline points="238.152,48.6348 238.152,48.6348 " />
<polyline points="248.209,55.042 248.209,55.042 " />
<polyline points="279.588,75.0326 279.588,75.0326 " />
<polyline points="321.225,101.559 321.225,101.559 " />
<polyline points="331.283,107.966 331.283,107.966 " />
<polyline points="347.812,118.496 347.812,118.496 " />
<polyline points="168.264,19.2575 168.264,19.2575 " />
<polyline points="168.264,19.2575 168.264,19.2575 " />
<polyline points="171.051,21.033 171.051,21.033 " />
<polyline points="212.689,47.5589 212.689,47.5589 " />
<polyline points="222.746,53.9661 222.746,53.9661 " />
<polyline points="254.125,73.9567 254.125,73.9567 " />
<polyline points="295.762,100.483 295.762,100.483 " />
<polyline points="305.82,106.89 305.82,106.89 " />
<polyline points="337.198,126.88 337.198,126.88 " />
<polyline points="168.264,34.4034 168.264,34.4034 " />
<polyline points="168.264,34.4034 168.264,34.4034 " />
<polyline points="168.264,34.4034 168.264,34.4034 " />
<polyline points="187.225,46.4831 187.225,46.4831 " />
<polyline points="197.283,52.8903 197.283,52.8903 " />
<polyline points="228.662,72.8809 228.662,72.8809 " />
<polyline points="270.299,99.4068 270.299,99.4068 " />
<polyline points="280.356,105.814 280.356,105.814 " />
<polyline points="311.735,125.805 311.735,125.805 " />
<polyline points="168.264,49.5493 168.264,49.5493 " />
<polyline points="171.82,51.8144 171.82,51.8144 " />
<polyline points="203.199,71.805 203.199,71.805 " />
<polyline points="244.836,98.331 244.836,98.331 " />
<polyline points="254.893,104.738 254.893,104.738 " />
<polyline points="286.272,124.729 286.272,124.729 " />
<polyline points="327.91,151.255 327.91,151.255 " />
<polyline points="337.967,157.662 337.967,157.662 " />
<polyline points="347.812,163.934 347.812,163.934 " />
<polyline points="168.264,64.6952 168.264,64.6952 " />
<polyline points="168.264,64.6952 168.264,64.6952 " />
<polyline points="177.736,70.7291 177.736,70.7291 " />
<polyline points="219.373,97.2551 219.373,97.2551 " />
<polyline points="229.43,103.662 229.43,103.662 " />
<polyline points="260.809,123.653 260.809,123.653 " />
<polyline points="302.447,150.179 302.447,150.179 " />
<polyline points="312.504,156.586 312.504,156.586 " />
<polyline points="343.883,176.577 343.883,176.577 " />
<polyline points="168.264,79.8411 168.264,79.8411 " />
<polyline points="168.264,79.8411 168.264,79.8411 " />
<polyline points="168.264,79.8411 168.264,79.8411 " />
<polyline points="193.91,96.1792 193.91,96.1792 " />
<polyline points="203.967,102.586 203.967,102.586 " />
<polyline points="235.346,122.577 235.346,122.577 " />
<polyline points="276.984,149.103 276.984,149.103 " />
<polyline points="287.041,155.51 287.041,155.51 " />
<polyline points="318.42,175.501 318.42,175.501 " />
<polyline points="168.264,94.987 168.264,94.987 " />
<polyline points="168.264,94.987 168.264,94.987 " />
<polyline points="168.264,94.987 168.264,94.987 " />
<polyline points="168.447,95.1034 168.447,95.1034 " />
<polyline points="178.504,101.511 178.504,101.511 " />
<polyline points="209.883,121.501 209.883,121.501 " />
<polyline points="251.52,148.027 251.52,148.027 " />
<polyline points="261.578,154.434 261.578,154.434 " />
<polyline points="292.957,174.425 292.957,174.425 " />
<polyline points="334.594,200.951 334.594,200.951 " />
<polyline points="344.651,207.358 344.651,207.358 " />
<polyline points="347.812,209.372 347.812,209.372 " />
<polyline points="168.264,110.133 168.264,110.133 " />
<polyline points="168.264,110.133 168.264,110.133 " />
<polyline points="184.42,120.425 184.42,120.425 " />
<polyline points="226.057,146.951 226.057,146.951 " />
<polyline points="236.115,153.359 236.115,153.359 " />
<polyline points="267.494,173.349 267.494,173.349 " />
<polyline points="309.131,199.875 309.131,199.875 " />
<polyline points="319.188,206.282 319.188,206.282 " />
<polyline points="347.812,224.518 347.812,224.518 " />
<polyline points="168.264,125.279 168.264,125.279 " />
<polyline points="168.264,125.279 168.264,125.279 " />
<polyline points="168.264,125.279 168.264,125.279 " />
<polyline points="200.594,145.875 200.594,145.875 " />
<polyline points="210.652,152.283 210.652,152.283 " />
<polyline points="242.031,172.273 242.031,172.273 " />
<polyline points="283.668,198.799 283.668,198.799 " />
<polyline points="293.725,205.206 293.725,205.206 " />
<polyline points="325.104,225.197 325.104,225.197 " />
<polyline points="168.264,140.425 168.264,140.425 " />
<polyline points="168.264,140.425 168.264,140.425 " />
<polyline points="168.264,140.425 168.264,140.425 " />
<polyline points="175.131,144.8 175.131,144.8 " />
<polyline points="185.189,151.207 185.189,151.207 " />
<polyline points="216.567,171.197 216.567,171.197 " />
<polyline points="258.205,197.723 258.205,197.723 " />
<polyline points="268.262,204.131 268.262,204.131 " />
<polyline points="299.641,224.121 299.641,224.121 " />
<polyline points="341.279,250.647 341.279,250.647 " />
<polyline points="347.812,254.809 347.812,254.809 " />
<polyline points="347.812,254.809 347.812,254.809 " />
<polyline points="168.264,155.571 168.264,155.571 " />
<polyline points="168.264,155.571 168.264,155.571 " />
<polyline points="191.104,170.122 191.104,170.122 " />
<polyline points="232.742,196.647 232.742,196.647 " />
<polyline points="242.799,203.055 242.799,203.055 " />
<polyline points="274.178,223.045 274.178,223.045 " />
<polyline points="315.815,249.571 315.815,249.571 " />
<polyline points="325.873,255.979 325.873,255.979 " />
<polyline points="347.812,269.955 347.812,269.955 " />
<polyline points="168.264,170.717 168.264,170.717 " />
<polyline points="168.264,170.717 168.264,170.717 " />
<polyline points="168.264,170.717 168.264,170.717 " />
<polyline points="207.279,195.572 207.279,195.572 " />
<polyline points="217.336,201.979 217.336,201.979 " />
<polyline points="248.715,221.969 248.715,221.969 " />
<polyline points="290.352,248.495 290.352,248.495 " />
<polyline points="300.41,254.903 300.41,254.903 " />
<polyline points="331.789,274.893 331.789,274.893 " />
<polyline points="168.264,185.863 168.264,185.863 " />
<polyline points="168.264,185.863 168.264,185.863 " />
<polyline points="168.264,185.863 168.264,185.863 " />
<polyline points="181.816,194.496 181.816,194.496 " />
<polyline points="191.873,200.903 191.873,200.903 " />
<polyline points="223.252,220.894 223.252,220.894 " />
<polyline points="264.889,247.42 264.889,247.42 " />
<polyline points="274.947,253.827 274.947,253.827 " />
<polyline points="306.326,273.817 306.326,273.817 " />
<polyline points="168.264,201.008 168.264,201.008 " />
<polyline points="168.264,201.008 168.264,201.008 " />
<polyline points="197.789,219.818 197.789,219.818 " />
<polyline points="239.426,246.344 239.426,246.344 " />
<polyline points="249.484,252.751 249.484,252.751 " />
<polyline points="280.862,272.742 280.862,272.742 " />
<polyline points="322.5,299.267 322.5,299.267 " />
<polyline points="332.557,305.675 332.557,305.675 " />
<polyline points="347.812,315.393 347.812,315.393 " />
<polyline points="168.264,216.154 168.264,216.154 " />
<polyline points="168.264,216.154 168.264,216.154 " />
<polyline points="172.326,218.742 172.326,218.742 " />
<polyline points="213.963,245.268 213.963,245.268 " />
<polyline points="224.02,251.675 224.02,251.675 " />
<polyline points="255.399,271.666 255.399,271.666 " />
<polyline points="297.037,298.192 297.037,298.192 " />
<polyline points="307.094,304.599 307.094,304.599 " />
<polyline points="338.473,324.589 338.473,324.589 " />
<polyline points="168.264,231.3 168.264,231.3 " />
<polyline points="168.264,231.3 168.264,231.3 " />
<polyline points="168.264,231.3 168.264,231.3 " />
<polyline points="188.5,244.192 188.5,244.192 " />
<polyline points="198.557,250.599 198.557,250.599 " />
<polyline points="229.936,270.59 229.936,270.59 " />
<polyline points="271.574,297.116 271.574,297.116 " />
<polyline points="281.631,303.523 281.631,303.523 " />
<polyline points="313.01,323.514 313.01,323.514 " />
<polyline points="168.264,246.446 168.264,246.446 " />
<polyline points="173.094,249.523 173.094,249.523 " />
<polyline points="204.473,269.514 204.473,269.514 " />
<polyline points="246.111,296.04 246.111,296.04 " />
<polyline points="256.168,302.447 256.168,302.447 " />
<polyline points="287.547,322.438 287.547,322.438 " />
<polyline points="329.184,348.964 329.184,348.964 " />
<polyline points="339.242,355.371 339.242,355.371 " />
<polyline points="347.812,360.831 347.812,360.831 " />
<polyline points="168.264,261.592 168.264,261.592 " />
<polyline points="168.264,261.592 168.264,261.592 " />
<polyline points="179.01,268.438 179.01,268.438 " />
<polyline points="220.648,294.964 220.648,294.964 " />
<polyline points="230.705,301.371 230.705,301.371 " />
<polyline points="262.084,321.362 262.084,321.362 " />
<polyline points="303.721,347.888 303.721,347.888 " />
<polyline points="313.779,354.295 313.779,354.295 " />
<polyline points="345.157,374.286 345.157,374.286 " />
<polyline points="168.264,276.738 168.264,276.738 " />
<polyline points="168.264,276.738 168.264,276.738 " />
<polyline points="168.264,276.738 168.264,276.738 " />
<polyline points="195.184,293.888 195.184,293.888 " />
<polyline points="205.242,300.295 205.242,300.295 " />
<polyline points="236.621,320.286 236.621,320.286 " />
<polyline points="278.258,346.812 278.258,346.812 " />
<polyline points="288.315,353.219 288.315,353.219 " />
<polyline points="319.694,373.21 319.694,373.21 " />
<polyline points="168.264,291.884 168.264,291.884 " />
<polyline points="168.264,291.884 168.264,291.884 " />
<polyline points="168.264,291.884 168.264,291.884 " />
<polyline points="169.721,292.812 169.721,292.812 " />
<polyline points="179.779,299.22 179.779,299.22 " />
<polyline points="211.158,319.21 211.158,319.21 " />
<polyline points="252.795,345.736 252.795,345.736 " />
<polyline points="262.852,352.143 262.852,352.143 " />
<polyline points="294.231,372.134 294.231,372.134 " />
<polyline points="168.264,307.03 168.264,307.03 " />
<polyline points="168.264,307.03 168.264,307.03 " />
<polyline points="185.695,318.134 185.695,318.134 " />
<polyline points="227.332,344.66 227.332,344.66 " />
<polyline points="237.389,351.067 237.389,351.067 " />
<polyline points="268.768,371.058 268.768,371.058 " />
<polyline points="168.264,322.176 168.264,322.176 " />
<polyline points="168.264,322.176 168.264,322.176 " />
<polyline points="168.264,322.176 168.264,322.176 " />
<polyline points="201.869,343.584 201.869,343.584 " />
<polyline points="211.926,349.992 211.926,349.992 " />
<polyline points="243.305,369.982 243.305,369.982 " />
<polyline points="168.264,337.322 168.264,337.322 " />
<polyline points="168.264,337.322 168.264,337.322 " />
<polyline points="168.264,337.322 168.264,337.322 " />
<polyline points="176.406,342.509 176.406,342.509 " />
<polyline points="186.463,348.916 186.463,348.916 " />
<polyline points="217.842,368.906 217.842,368.906 " />
<polyline points="168.264,352.468 168.264,352.468 " />
<polyline points="168.264,352.468 168.264,352.468 " />
<polyline points="192.379,367.83 192.379,367.83 " />
<polyline points="168.264,367.614 168.264,367.614 " />
<polyline points="168.264,367.614 168.264,367.614 " />
<polyline points="168.264,367.614 168.264,367.614 " />
<polyline points="168.264,382.759 168.264,382.759 " />
<polyline points="168.264,382.759 168.264,382.759 " />
<polyline points="168.264,382.759 168.264,382.759 " />
<polyline points="320.607,0.0700262 320.607,0.0700262 " />
<polyline points="332.037,10.5433 332.037,10.5433 " />
<polyline points="347.812,24.9986 347.812,24.9986 " />
<polyline points="292.79,4.84499 292.79,4.84499 " />
<polyline points="304.219,15.3182 304.219,15.3182 " />
<polyline points="322.436,32.0109 322.436,32.0109 " />
<polyline points="264.972,9.61995 264.972,9.61995 " />
<polyline points="276.401,20.0932 276.401,20.0932 " />
<polyline points="294.618,36.7859 294.618,36.7859 " />
<polyline points="320.467,60.4715 320.467,60.4715 " />
<polyline points="331.896,70.9448 331.896,70.9448 " />
<polyline points="347.812,85.5289 347.812,85.5289 " />
<polyline points="237.154,14.3949 237.154,14.3949 " />
<polyline points="248.584,24.8681 248.584,24.8681 " />
<polyline points="266.801,41.5609 266.801,41.5609 " />
<polyline points="292.649,65.2465 292.649,65.2465 " />
<polyline points="304.079,75.7197 304.079,75.7197 " />
<polyline points="322.295,92.4125 322.295,92.4125 " />
<polyline points="209.337,19.1699 209.337,19.1699 " />
<polyline points="220.766,29.6431 220.766,29.6431 " />
<polyline points="238.983,46.3358 238.983,46.3358 " />
<polyline points="264.831,70.0215 264.831,70.0215 " />
<polyline points="276.261,80.4947 276.261,80.4947 " />
<polyline points="294.478,97.1874 294.478,97.1874 " />
<polyline points="320.326,120.873 320.326,120.873 " />
<polyline points="331.756,131.346 331.756,131.346 " />
<polyline points="347.812,146.059 347.812,146.059 " />
<polyline points="168.264,11.7992 168.264,11.7992 " />
<polyline points="168.264,11.7992 168.264,11.7992 " />
<polyline points="168.264,11.7992 168.264,11.7992 " />
<polyline points="181.519,23.9448 181.519,23.9448 " />
<polyline points="192.948,34.4181 192.948,34.4181 " />
<polyline points="211.165,51.1108 211.165,51.1108 " />
<polyline points="237.014,74.7964 237.014,74.7964 " />
<polyline points="248.443,85.2697 248.443,85.2697 " />
<polyline points="266.66,101.962 266.66,101.962 " />
<polyline points="292.508,125.648 292.508,125.648 " />
<polyline points="303.938,136.121 303.938,136.121 " />
<polyline points="322.155,152.814 322.155,152.814 " />
<polyline points="168.264,42.0644 168.264,42.0644 " />
<polyline points="168.264,42.0644 168.264,42.0644 " />
<polyline points="183.348,55.8858 183.348,55.8858 " />
<polyline points="209.196,79.5714 209.196,79.5714 " />
<polyline points="220.625,90.0446 220.625,90.0446 " />
<polyline points="238.842,106.737 238.842,106.737 " />
<polyline points="264.691,130.423 264.691,130.423 " />
<polyline points="276.12,140.896 276.12,140.896 " />
<polyline points="294.337,157.589 294.337,157.589 " />
<polyline points="320.185,181.275 320.185,181.275 " />
<polyline points="331.615,191.748 331.615,191.748 " />
<polyline points="347.812,206.59 347.812,206.59 " />
<polyline points="168.264,72.3296 168.264,72.3296 " />
<polyline points="168.264,72.3296 168.264,72.3296 " />
<polyline points="168.264,72.3296 168.264,72.3296 " />
<polyline points="181.378,84.3463 181.378,84.3463 " />
<polyline points="192.808,94.8196 192.808,94.8196 " />
<polyline points="211.025,111.512 211.025,111.512 " />
<polyline points="236.873,135.198 236.873,135.198 " />
<polyline points="248.302,145.671 248.302,145.671 " />
<polyline points="266.519,162.364 266.519,162.364 " />
<polyline points="292.368,186.05 292.368,186.05 " />
<polyline points="303.797,196.523 303.797,196.523 " />
<polyline points="322.014,213.215 322.014,213.215 " />
<polyline points="168.264,102.595 168.264,102.595 " />
<polyline points="168.264,102.595 168.264,102.595 " />
<polyline points="183.207,116.287 183.207,116.287 " />
<polyline points="209.055,139.973 209.055,139.973 " />
<polyline points="220.485,150.446 220.485,150.446 " />
<polyline points="238.702,167.139 238.702,167.139 " />
<polyline points="264.55,190.824 264.55,190.824 " />
<polyline points="275.98,201.298 275.98,201.298 " />
<polyline points="294.196,217.99 294.196,217.99 " />
<polyline points="320.045,241.676 320.045,241.676 " />
<polyline points="331.474,252.149 331.474,252.149 " />
<polyline points="347.812,267.12 347.812,267.12 " />
<polyline points="168.264,132.86 168.264,132.86 " />
<polyline points="168.264,132.86 168.264,132.86 " />
<polyline points="168.264,132.86 168.264,132.86 " />
<polyline points="181.238,144.748 181.238,144.748 " />
<polyline points="192.667,155.221 192.667,155.221 " />
<polyline points="210.884,171.914 210.884,171.914 " />
<polyline points="236.732,195.599 236.732,195.599 " />
<polyline points="248.162,206.073 248.162,206.073 " />
<polyline points="266.379,222.765 266.379,222.765 " />
<polyline points="292.227,246.451 292.227,246.451 " />
<polyline points="303.657,256.924 303.657,256.924 " />
<polyline points="321.873,273.617 321.873,273.617 " />
<polyline points="347.722,297.303 347.722,297.303 " />
<polyline points="347.812,297.385 347.812,297.385 " />
<polyline points="347.812,297.385 347.812,297.385 " />
<polyline points="168.264,163.125 168.264,163.125 " />
<polyline points="168.264,163.125 168.264,163.125 " />
<polyline points="183.066,176.689 183.066,176.689 " />
<polyline points="208.915,200.374 208.915,200.374 " />
<polyline points="220.344,210.848 220.344,210.848 " />
<polyline points="238.561,227.54 238.561,227.54 " />
<polyline points="264.409,251.226 264.409,251.226 " />
<polyline points="275.839,261.699 275.839,261.699 " />
<polyline points="294.056,278.392 294.056,278.392 " />
<polyline points="319.904,302.078 319.904,302.078 " />
<polyline points="331.334,312.551 331.334,312.551 " />
<polyline points="347.812,327.651 347.812,327.651 " />
<polyline points="168.264,193.39 168.264,193.39 " />
<polyline points="168.264,193.39 168.264,193.39 " />
<polyline points="168.264,193.39 168.264,193.39 " />
<polyline points="181.097,205.149 181.097,205.149 " />
<polyline points="192.526,215.623 192.526,215.623 " />
<polyline points="210.743,232.315 210.743,232.315 " />
<polyline points="236.592,256.001 236.592,256.001 " />
<polyline points="248.021,266.474 248.021,266.474 " />
<polyline points="266.238,283.167 266.238,283.167 " />
<polyline points="292.086,306.853 292.086,306.853 " />
<polyline points="303.516,317.326 303.516,317.326 " />
<polyline points="321.733,334.018 321.733,334.018 " />
<polyline points="347.581,357.704 347.581,357.704 " />
<polyline points="347.812,357.916 347.812,357.916 " />
<polyline points="347.812,357.916 347.812,357.916 " />
<polyline points="168.264,223.656 168.264,223.656 " />
<polyline points="168.264,223.656 168.264,223.656 " />
<polyline points="182.926,237.09 182.926,237.09 " />
<polyline points="208.774,260.776 208.774,260.776 " />
<polyline points="220.203,271.249 220.203,271.249 " />
<polyline points="238.42,287.942 238.42,287.942 " />
<polyline points="264.269,311.627 264.269,311.627 " />
<polyline points="275.698,322.101 275.698,322.101 " />
<polyline points="293.915,338.793 293.915,338.793 " />
<polyline points="319.763,362.479 319.763,362.479 " />
<polyline points="331.193,372.952 331.193,372.952 " />
<polyline points="347.812,388.181 347.812,388.181 " />
<polyline points="168.264,253.921 168.264,253.921 " />
<polyline points="168.264,253.921 168.264,253.921 " />
<polyline points="168.264,253.921 168.264,253.921 " />
<polyline points="180.956,265.551 180.956,265.551 " />
<polyline points="192.386,276.024 192.386,276.024 " />
<polyline points="210.603,292.717 210.603,292.717 " />
<polyline points="236.451,316.402 236.451,316.402 " />
<polyline points="247.881,326.876 247.881,326.876 " />
<polyline points="266.097,343.568 266.097,343.568 " />
<polyline points="291.946,367.254 291.946,367.254 " />
<polyline points="303.375,377.727 303.375,377.727 " />
<polyline points="318.001,391.129 318.001,391.129 " />
<polyline points="168.264,284.186 168.264,284.186 " />
<polyline points="168.264,284.186 168.264,284.186 " />
<polyline points="182.785,297.492 182.785,297.492 " />
<polyline points="208.633,321.177 208.633,321.177 " />
<polyline points="220.063,331.651 220.063,331.651 " />
<polyline points="238.28,348.343 238.28,348.343 " />
<polyline points="264.128,372.029 264.128,372.029 " />
<polyline points="275.558,382.502 275.558,382.502 " />
<polyline points="284.972,391.129 284.972,391.129 " />
<polyline points="168.264,314.451 168.264,314.451 " />
<polyline points="168.264,314.451 168.264,314.451 " />
<polyline points="168.264,314.451 168.264,314.451 " />
<polyline points="180.816,325.952 180.816,325.952 " />
<polyline points="192.245,336.426 192.245,336.426 " />
<polyline points="210.462,353.118 210.462,353.118 " />
<polyline points="236.31,376.804 236.31,376.804 " />
<polyline points="247.74,387.277 247.74,387.277 " />
<polyline points="251.943,391.129 251.943,391.129 " />
<polyline points="168.264,344.716 168.264,344.716 " />
<polyline points="168.264,344.716 168.264,344.716 " />
<polyline points="182.644,357.893 182.644,357.893 " />
<polyline points="208.493,381.579 208.493,381.579 " />
<polyline points="218.915,391.129 218.915,391.129 " />
<polyline points="218.915,391.129 218.915,391.129 " />
<polyline points="168.264,374.982 168.264,374.982 " />
<polyline points="168.264,374.982 168.264,374.982 " />
<polyline points="168.264,374.982 168.264,374.982 " />
<polyline points="180.675,386.354 180.675,386.354 " />
<polyline points="185.886,391.129 185.886,391.129 " />
<polyline points="185.886,391.129 185.886,391.129 " />
</g>
<g stroke-width="0.25" clip-path="url(#clipId0)" fill="none" stroke="rgb(255,0,255)" >
<polyline points="-248.176,391.129 381.219,391.129 " />
<polyline points="-241.022,398.284 374.064,398.284 " />
</g>
<g stroke-width="0.25" clip-path="url(#clipId0)" fill="none" stroke="rgb(255,0,0)" >
<polyline points="-210.017,431.673 343.059,431.673 " />
</g>
<g stroke-width="0.25" clip-path="url(#clipId0)" fill="none" stroke="rgb(0,0,0)" >
<polyline points="-202.862,438.828 6.8968,438.828 " />
<polyline points="126.146,438.828 335.904,438.828 " />
<polyline points="-195.707,445.983 6.8968,445.983 " />
<polyline points="126.146,445.983 328.749,445.983 " />
</g>
<g stroke-width="0.25" clip-path="url(#clipId0)" fill="none" stroke="rgb(255,0,255)" >
<polyline points="381.219,4073.53 381.219,391.129 " />
<polyline points="374.064,4066.38 374.064,398.284 " />
</g>
<g stroke-width="0.25" clip-path="url(#clipId0)" fill="none" stroke="rgb(255,0,0)" >
<polyline points="343.059,4035.37 343.059,431.673 " />
</g>
<g stroke-width="0.25" clip-path="url(#clipId0)" fill="none" stroke="rgb(0,0,0)" >
<polyline points="335.904,564.04 335.904,438.828 " />
<polyline points="328.749,742.913 328.749,445.983 " />
<polyline points="359.737,424.519 375.495,424.519 " />
<polyline points="347.812,412.594 347.812,424.519 " />
<polyline points="347.812,424.519 381.202,424.519 " />
<polyline points="381.202,424.519 381.202,412.594 " />
<polyline points="381.202,412.594 347.812,412.594 " />
</g>
<g stroke-width="0.25" clip-path="url(#clipId0)" fill="none" stroke="rgb(255,255,0)" >
<polyline points="66.5212,431.673 66.5212,4035.37 " />
</g>
<g stroke-width="0.25" clip-path="url(#clipId0)" fill="none" stroke="rgb(45,45,45)" >
<polyline points="66.5212,436.334 343.059,436.334 " />
<polyline points="66.5212,442.296 343.059,442.296 " />
<polyline points="66.5212,448.259 343.059,448.259 " />
<polyline points="66.5212,454.221 343.059,454.221 " />
<polyline points="66.5212,460.183 343.059,460.183 " />
<polyline points="66.5212,466.146 343.059,466.146 " />
<polyline points="66.5212,472.108 343.059,472.108 " />
<polyline points="66.5212,478.071 343.059,478.071 " />
<polyline points="66.5212,484.033 343.059,484.033 " />
<polyline points="66.5212,489.996 343.059,489.996 " />
<polyline points="66.5212,495.958 343.059,495.958 " />
<polyline points="66.5212,501.92 343.059,501.92 " />
<polyline points="66.5212,507.883 343.059,507.883 " />
<polyline points="66.5212,513.845 343.059,513.845 " />
<polyline points="66.5212,519.808 343.059,519.808 " />
<polyline points="66.5212,525.77 343.059,525.77 " />
<polyline points="66.5212,531.733 343.059,531.733 " />
<polyline points="66.5212,537.695 343.059,537.695 " />
<polyline points="66.5212,543.658 343.059,543.658 " />
<polyline points="66.5212,549.62 343.059,549.62 " />
<polyline points="66.5212,555.582 343.059,555.582 " />
<polyline points="66.5212,561.545 343.059,561.545 " />
<polyline points="66.5212,567.507 343.059,567.507 " />
<polyline points="66.5212,573.47 343.059,573.47 " />
<polyline points="66.5212,579.432 343.059,579.432 " />
<polyline points="66.5212,585.395 343.059,585.395 " />
<polyline points="66.5212,591.357 343.059,591.357 " />
<polyline points="66.5212,597.32 343.059,597.32 " />
</g>
<g stroke-width="0.05" clip-path="url(#clipId0)" fill="none" stroke="rgb(0,0,0)" >
<polyline points="328.749,491.149 328.749,486.379 " />
<polyline points="335.904,491.149 335.904,495.919 " />
<polyline points="328.749,491.149 324.933,491.149 " />
<polyline points="335.904,491.149 339.72,491.149 " />
<polyline points="328.749,491.149 335.904,491.149 " />
</g>
<g stroke-width="0.25" clip-path="url(#clipId0)" fill="rgb(0,0,0)" stroke="none" >
<path d="M327.044,493.259 326.639,492.854 330.455,489.039 330.86,489.443 z" />
<path d="M337.61,489.039 338.015,489.443 334.199,493.259 333.794,492.854 z" />
</g>
<g stroke-width="0.25" clip-path="url(#clipId0)" fill="rgb(255,255,0)" stroke="none" >
<text transform="matrix(9.53991 0 -0 9.53991 322.735 486.216)" font-family="Arial,'sans-serif'" font-size="1.39636" >.15</text>
</g>
<g stroke-width="0.05" clip-path="url(#clipId0)" fill="none" stroke="rgb(0,0,0)" >
<polyline points="335.904,488.823 335.904,484.053 " />
<polyline points="374.064,488.823 374.064,484.053 " />
<polyline points="335.904,488.823 374.064,488.823 " />
</g>
<g stroke-width="0.25" clip-path="url(#clipId0)" fill="rgb(0,0,0)" stroke="none" >
<path d="M337.61,486.712 338.015,487.117 334.199,490.933 333.794,490.528 z" />
<path d="M372.358,490.933 371.954,490.528 375.77,486.712 376.174,487.117 z" />
</g>
<g stroke-width="0.25" clip-path="url(#clipId0)" fill="rgb(255,255,0)" stroke="none" >
<text transform="matrix(9.53991 0 -0 9.53991 345.444 483.89)" font-family="Arial,'sans-serif'" font-size="1.39636" >.80</text>
</g>
<g stroke-width="0.05" clip-path="url(#clipId0)" fill="none" stroke="rgb(0,0,0)" >
<polyline points="374.064,488.823 374.064,484.053 " />
<polyline points="381.219,488.823 381.219,484.053 " />
<polyline points="374.064,488.823 370.248,488.823 " />
<polyline points="381.219,488.823 385.035,488.823 " />
<polyline points="374.064,488.823 381.219,488.823 " />
</g>
<g stroke-width="0.25" clip-path="url(#clipId0)" fill="rgb(0,0,0)" stroke="none" >
<path d="M372.358,490.933 371.954,490.528 375.77,486.712 376.174,487.117 z" />
<path d="M382.925,486.712 383.329,487.117 379.513,490.933 379.109,490.528 z" />
</g>
<g stroke-width="0.25" clip-path="url(#clipId0)" fill="rgb(255,255,0)" stroke="none" >
<text transform="matrix(9.53991 0 -0 9.53991 368.049 483.89)" font-family="Arial,'sans-serif'" font-size="1.39636" >.15</text>
</g>
<g stroke-width="0.25" clip-path="url(#clipId0)" fill="none" stroke="rgb(255,0,0)" >
<polyline points="-1088.65,-1587.03 4377.59,-1587.03 4377.59,4859.77 -1088.65,4859.77 -1088.65,-1587.03 " />
</g>
<g stroke-width="0.25" clip-path="url(#clipId0)" fill="rgb(0,0,0)" stroke="none" >
<text transform="matrix(7.63193 0 -0 7.63193 86.9343 107.605)" font-family="Arial,'sans-serif'" font-size="1.39636" >LAJE</text>
<text transform="matrix(7.63193 0 -0 7.63193 47.1681 120.325)" font-family="Arial,'sans-serif'" font-size="1.39636" >IMPERMEABILIZADA</text>
</g>
<g stroke-width="0.25" clip-path="url(#clipId0)" fill="none" stroke="rgb(0,0,0)" >
<polyline points="193.673,125.867 197.489,126.503 " />
<polyline points="197.489,126.503 193.673,127.139 " />
<polyline points="193.673,125.867 193.673,127.139 " />
<polyline points="193.673,126.503 49.4378,126.503 " />
</g>
<g stroke-width="0.05" clip-path="url(#clipId0)" fill="none" stroke="rgb(0,0,0)" >
<polyline points="66.5212,481.609 66.5212,495.919 " />
<polyline points="328.749,481.609 328.749,495.919 " />
<polyline points="66.5212,491.149 328.749,491.149 " />
</g>
<g stroke-width="0.25" clip-path="url(#clipId0)" fill="rgb(0,0,0)" stroke="none" >
<path d="M68.2268,489.039 68.6316,489.443 64.8156,493.259 64.4109,492.854 z" />
<path d="M327.044,493.259 326.639,492.854 330.455,489.039 330.86,489.443 z" />
</g>
<g stroke-width="0.25" clip-path="url(#clipId0)" fill="rgb(255,255,0)" stroke="none" >
<text transform="matrix(9.53991 0 -0 9.53991 184.723 486.216)" font-family="Arial,'sans-serif'" font-size="1.39636" >5.50</text>
</g>
<g stroke-width="0.05" clip-path="url(#clipId0)" fill="none" stroke="rgb(0,0,0)" >
<polyline points="66.5212,481.609 66.5212,495.919 " />
<polyline points="-195.707,491.149 66.5212,491.149 " />
</g>
<g stroke-width="0.25" clip-path="url(#clipId0)" fill="rgb(0,0,0)" stroke="none" >
<path d="M64.8156,493.259 64.4109,492.854 68.2268,489.039 68.6316,489.443 z" />
</g>
<g stroke-width="0.25" clip-path="url(#clipId0)" fill="none" stroke="rgb(0,0,0)" >
<polyline points="359.737,424.519 347.812,424.519 " />
<polyline points="347.812,424.519 347.829,391.129 " />
<polyline points="347.829,391.129 359.737,391.129 " />
<polyline points="359.737,391.129 359.737,424.519 " />
<polyline points="168.264,424.519 156.339,424.519 " />
<polyline points="156.339,424.519 156.356,391.129 " />
<polyline points="156.356,391.129 168.264,391.129 " />
<polyline points="168.264,391.129 168.264,424.519 " />
</g>
<g stroke-width="0.25" clip-path="url(#clipId0)" fill="none" stroke="rgb(0,255,0)" >
<polyline points="168.264,-126.605 168.264,391.129 " />
<polyline points="156.339,-126.605 156.339,30.8036 " />
<polyline points="156.339,42.7284 156.339,221.602 " />
<polyline points="156.339,233.527 156.339,391.129 " />
<polyline points="347.812,-126.605 347.812,391.129 " />
<polyline points="359.737,-126.605 359.737,30.8036 " />
<polyline points="359.737,42.7284 359.737,221.602 " />
<polyline points="359.737,233.527 359.737,391.129 " />
<polyline points="156.339,30.8036 134.87,30.8036 134.87,42.7284 156.339,42.7284 " />
<polyline points="156.339,221.602 134.87,221.602 134.87,233.527 156.339,233.527 " />
<polyline points="359.737,30.8036 381.206,30.8036 381.206,42.7284 359.737,42.7284 " />
<polyline points="359.737,221.602 381.206,221.602 381.206,233.527 359.737,233.527 " />
</g>
<g stroke-width="0.05" clip-path="url(#clipId0)" fill="none" stroke="rgb(0,0,0)" >
<polyline points="86.9945,391.129 72.6846,391.129 " />
<polyline points="86.9945,233.527 72.6846,233.527 " />
<polyline points="77.4546,391.129 77.4546,233.527 " />
</g>
<g stroke-width="0.25" clip-path="url(#clipId0)" fill="rgb(0,0,0)" stroke="none" >
<path d="M75.3442,389.423 75.749,389.019 79.565,392.834 79.1602,393.239 z" />
<path d="M79.565,235.232 79.1602,235.637 75.3442,231.821 75.749,231.416 z" />
</g>
<g stroke-width="0.25" clip-path="url(#clipId0)" fill="rgb(255,255,0)" stroke="none" >
<text transform="matrix(5.84151e-016 -9.53991 9.53991 5.84151e-016 72.5185 325.245)" font-family="Arial,'sans-serif'" font-size="1.39636" >3.30</text>
</g>
<g stroke-width="0.05" clip-path="url(#clipId0)" fill="none" stroke="rgb(0,0,0)" >
<polyline points="86.9945,233.527 72.6846,233.527 " />
<polyline points="86.9945,221.602 72.6846,221.602 " />
<polyline points="77.4546,233.527 77.4546,237.343 " />
<polyline points="77.4546,221.602 77.4546,217.786 " />
<polyline points="77.4546,233.527 77.4546,221.602 " />
</g>
<g stroke-width="0.25" clip-path="url(#clipId0)" fill="rgb(0,0,0)" stroke="none" >
<path d="M79.565,235.232 79.1602,235.637 75.3442,231.821 75.749,231.416 z" />
<path d="M75.3442,219.896 75.749,219.491 79.565,223.307 79.1602,223.712 z" />
</g>
<g stroke-width="0.25" clip-path="url(#clipId0)" fill="rgb(255,255,0)" stroke="none" >
<text transform="matrix(5.84151e-016 -9.53991 9.53991 5.84151e-016 72.5218 237.157)" font-family="Arial,'sans-serif'" font-size="1.39636" >.25</text>
</g>
<g stroke-width="0.05" clip-path="url(#clipId0)" fill="none" stroke="rgb(0,0,0)" >
<polyline points="86.9945,221.602 72.6846,221.602 " />
<polyline points="86.9945,42.7284 72.6846,42.7284 " />
<polyline points="77.4546,221.602 77.4546,42.7284 " />
</g>
<g stroke-width="0.25" clip-path="url(#clipId0)" fill="rgb(0,0,0)" stroke="none" >
<path d="M75.3442,219.896 75.749,219.491 79.565,223.307 79.1602,223.712 z" />
<path d="M79.565,44.4341 79.1602,44.8388 75.3442,41.0228 75.749,40.6181 z" />
</g>
<g stroke-width="0.25" clip-path="url(#clipId0)" fill="rgb(255,255,0)" stroke="none" >
<text transform="matrix(5.84151e-016 -9.53991 9.53991 5.84151e-016 72.5185 145.135)" font-family="Arial,'sans-serif'" font-size="1.39636" >3.75</text>
</g>
<g stroke-width="0.05" clip-path="url(#clipId0)" fill="none" stroke="rgb(0,0,0)" >
<polyline points="86.9945,42.7284 72.6846,42.7284 " />
<polyline points="86.9945,30.8036 72.6846,30.8036 " />
<polyline points="77.4546,42.7284 77.4546,46.5444 " />
<polyline points="77.4546,30.8036 77.4546,26.9876 " />
<polyline points="77.4546,42.7284 77.4546,30.8036 " />
</g>
<g stroke-width="0.25" clip-path="url(#clipId0)" fill="rgb(0,0,0)" stroke="none" >
<path d="M79.565,44.4341 79.1602,44.8388 75.3442,41.0228 75.749,40.6181 z" />
<path d="M75.3442,29.0979 75.749,28.6932 79.565,32.5092 79.1602,32.9139 z" />
</g>
<g stroke-width="0.25" clip-path="url(#clipId0)" fill="rgb(255,255,0)" stroke="none" >
<text transform="matrix(5.84151e-016 -9.53991 9.53991 5.84151e-016 72.5218 46.3584)" font-family="Arial,'sans-serif'" font-size="1.39636" >.25</text>
</g>
<g stroke-width="0.05" clip-path="url(#clipId0)" fill="none" stroke="rgb(0,0,0)" >
<polyline points="86.9945,30.8036 72.6846,30.8036 " />
<polyline points="77.4546,30.8036 77.4546,-126.605 " />
</g>
<g stroke-width="0.25" clip-path="url(#clipId0)" fill="rgb(0,0,0)" stroke="none" >
<path d="M75.3442,29.0979 75.749,28.6932 79.565,32.5092 79.1602,32.9139 z" />
</g>
<g stroke-width="0.05" clip-path="url(#clipId0)" fill="none" stroke="rgb(0,0,0)" >
<polyline points="156.353,374.64 156.353,360.33 " />
<polyline points="-241.022,365.1 156.353,365.1 " />
</g>
<g stroke-width="0.25" clip-path="url(#clipId0)" fill="rgb(0,0,0)" stroke="none" >
<path d="M154.647,367.211 154.242,366.806 158.058,362.99 158.463,363.395 z" />
</g>
<g stroke-width="0.05" clip-path="url(#clipId0)" fill="none" stroke="rgb(0,0,0)" >
<polyline points="156.353,374.64 156.353,360.33 " />
<polyline points="168.264,374.64 168.264,360.33 " />
<polyline points="156.353,365.1 152.537,365.1 " />
<polyline points="168.264,365.1 172.08,365.1 " />
<polyline points="156.353,365.1 168.264,365.1 " />
</g>
<g stroke-width="0.25" clip-path="url(#clipId0)" fill="rgb(0,0,0)" stroke="none" >
<path d="M154.647,367.211 154.242,366.806 158.058,362.99 158.463,363.395 z" />
<path d="M169.97,362.99 170.374,363.395 166.559,367.211 166.154,366.806 z" />
</g>
<g stroke-width="0.25" clip-path="url(#clipId0)" fill="rgb(255,255,0)" stroke="none" >
<text transform="matrix(9.53991 0 -0 9.53991 152.716 360.168)" font-family="Arial,'sans-serif'" font-size="1.39636" >.25</text>
</g>
<g stroke-width="0.05" clip-path="url(#clipId0)" fill="none" stroke="rgb(0,0,0)" >
<polyline points="168.264,374.64 168.264,360.33 " />
<polyline points="347.829,374.64 347.829,360.33 " />
<polyline points="168.264,365.1 347.829,365.1 " />
</g>
<g stroke-width="0.25" clip-path="url(#clipId0)" fill="rgb(0,0,0)" stroke="none" >
<path d="M169.97,362.99 170.374,363.395 166.559,367.211 166.154,366.806 z" />
<path d="M346.124,367.211 345.719,366.806 349.535,362.99 349.94,363.395 z" />
</g>
<g stroke-width="0.25" clip-path="url(#clipId0)" fill="rgb(255,255,0)" stroke="none" >
<text transform="matrix(9.53991 0 -0 9.53991 245.111 360.164)" font-family="Arial,'sans-serif'" font-size="1.39636" >3.76</text>
</g>
<g stroke-width="0.05" clip-path="url(#clipId0)" fill="none" stroke="rgb(0,0,0)" >
<polyline points="347.829,374.64 347.829,360.33 " />
<polyline points="359.737,374.64 359.737,360.33 " />
<polyline points="347.829,365.1 344.013,365.1 " />
<polyline points="359.737,365.1 363.553,365.1 " />
<polyline points="347.829,365.1 359.737,365.1 " />
</g>
<g stroke-width="0.25" clip-path="url(#clipId0)" fill="rgb(0,0,0)" stroke="none" >
<path d="M346.124,367.211 345.719,366.806 349.535,362.99 349.94,363.395 z" />
<path d="M361.443,362.99 361.847,363.395 358.031,367.211 357.627,366.806 z" />
</g>
<g stroke-width="0.25" clip-path="url(#clipId0)" fill="rgb(255,255,0)" stroke="none" >
<text transform="matrix(9.53991 0 -0 9.53991 344.191 360.168)" font-family="Arial,'sans-serif'" font-size="1.39636" >.25</text>
</g>
<g stroke-width="0.05" clip-path="url(#clipId0)" fill="none" stroke="rgb(0,0,0)" >
<polyline points="359.737,374.64 359.737,360.33 " />
<polyline points="381.219,374.64 381.219,360.33 " />
<polyline points="359.737,365.1 355.921,365.1 " />
<polyline points="381.219,365.1 385.035,365.1 " />
<polyline points="359.737,365.1 381.219,365.1 " />
</g>
<g stroke-width="0.25" clip-path="url(#clipId0)" fill="rgb(0,0,0)" stroke="none" >
<path d="M358.031,367.211 357.627,366.806 361.443,362.99 361.847,363.395 z" />
<path d="M382.925,362.99 383.329,363.395 379.513,367.211 379.109,366.806 z" />
</g>
<g stroke-width="0.25" clip-path="url(#clipId0)" fill="rgb(255,255,0)" stroke="none" >
<text transform="matrix(9.53991 0 -0 9.53991 360.886 360.168)" font-family="Arial,'sans-serif'" font-size="1.39636" >.45</text>
</g>
</svg>
